<svg xmlns="http://www.w3.org/2000/svg" width="1120" height="1179" viewBox="0 0 1120 1179">
<rect width="100%" height="100%" fill="#fbfbf8"/>
<text x="86" y="34" font-family="Arial, sans-serif" font-size="22" font-weight="700" fill="#202124">Corrected DLF Event Analysis</text>
<text x="86" y="58" font-family="Arial, sans-serif" font-size="13" fill="#5f6368">source: top/top_run.csv</text>
<text x="86" y="62" font-family="Arial, sans-serif" font-size="15" font-weight="700" fill="#202124">Unsigned sampled SAR codes (20 ns after update edge)</text>
<rect x="86" y="76" width="1006" height="220" fill="#ffffff" stroke="#dadce0" stroke-width="1"/>
<line x1="86" y1="296.00" x2="1092" y2="296.00" stroke="#eceff1" stroke-width="1"/>
<text x="76" y="300.00" font-family="Arial, sans-serif" font-size="11" text-anchor="end" fill="#6b7280">-177</text>
<line x1="86" y1="241.00" x2="1092" y2="241.00" stroke="#eceff1" stroke-width="1"/>
<text x="76" y="245.00" font-family="Arial, sans-serif" font-size="11" text-anchor="end" fill="#6b7280">466</text>
<line x1="86" y1="186.00" x2="1092" y2="186.00" stroke="#eceff1" stroke-width="1"/>
<text x="76" y="190.00" font-family="Arial, sans-serif" font-size="11" text-anchor="end" fill="#6b7280">1.11e+03</text>
<line x1="86" y1="131.00" x2="1092" y2="131.00" stroke="#eceff1" stroke-width="1"/>
<text x="76" y="135.00" font-family="Arial, sans-serif" font-size="11" text-anchor="end" fill="#6b7280">1.75e+03</text>
<line x1="86" y1="76.00" x2="1092" y2="76.00" stroke="#eceff1" stroke-width="1"/>
<text x="76" y="80.00" font-family="Arial, sans-serif" font-size="11" text-anchor="end" fill="#6b7280">2.4e+03</text>
<line x1="86.00" y1="76" x2="86.00" y2="296" stroke="#f1f3f4" stroke-width="1"/>
<text x="86.00" y="317" font-family="Arial, sans-serif" font-size="11" text-anchor="middle" fill="#6b7280">0.0</text>
<line x1="337.50" y1="76" x2="337.50" y2="296" stroke="#f1f3f4" stroke-width="1"/>
<text x="337.50" y="317" font-family="Arial, sans-serif" font-size="11" text-anchor="middle" fill="#6b7280">11.2</text>
<line x1="589.00" y1="76" x2="589.00" y2="296" stroke="#f1f3f4" stroke-width="1"/>
<text x="589.00" y="317" font-family="Arial, sans-serif" font-size="11" text-anchor="middle" fill="#6b7280">22.5</text>
<line x1="840.50" y1="76" x2="840.50" y2="296" stroke="#f1f3f4" stroke-width="1"/>
<text x="840.50" y="317" font-family="Arial, sans-serif" font-size="11" text-anchor="middle" fill="#6b7280">33.8</text>
<line x1="1092.00" y1="76" x2="1092.00" y2="296" stroke="#f1f3f4" stroke-width="1"/>
<text x="1092.00" y="317" font-family="Arial, sans-serif" font-size="11" text-anchor="middle" fill="#6b7280">45.0</text>
<line x1="86" y1="280.83" x2="1092" y2="280.83" stroke="#9aa0a6" stroke-width="1.2" stroke-dasharray="5,5"/>
<text x="26" y="186.00" transform="rotate(-90 26,186.00)" font-family="Arial, sans-serif" font-size="12" text-anchor="middle" fill="#5f6368">unsigned code</text>
<polyline fill="none" stroke="#005f73" stroke-width="1.7" stroke-linejoin="round" stroke-linecap="round" points="86.00,280.83 108.36,104.08 130.71,117.68 153.07,118.11 175.42,117.51 197.78,115.97 220.13,114.69 242.49,113.40 264.84,112.38 287.20,111.35 309.56,110.41 331.91,109.64 354.27,108.87 376.62,108.10 398.98,108.27 421.33,108.27 443.69,107.68 466.04,107.16 488.40,106.73 510.76,107.16 533.11,107.59 555.47,107.25 577.82,106.82 600.18,106.82 622.53,106.48 644.89,106.14 667.24,105.79 689.60,106.31 711.96,106.91 734.31,106.56 756.67,106.31 779.02,106.05 801.38,105.79 823.73,106.39 846.09,106.91 868.44,106.65 890.80,106.39 913.16,106.14 935.51,105.97 957.87,105.71 980.22,105.45 1002.58,106.05 1024.93,106.65 1047.29,106.39 1069.64,106.14 1092.00,105.97"/>
<circle cx="86.00" cy="280.83" r="2.5" fill="#005f73"/>
<circle cx="108.36" cy="104.08" r="2.5" fill="#005f73"/>
<circle cx="130.71" cy="117.68" r="2.5" fill="#005f73"/>
<circle cx="153.07" cy="118.11" r="2.5" fill="#005f73"/>
<circle cx="175.42" cy="117.51" r="2.5" fill="#005f73"/>
<circle cx="197.78" cy="115.97" r="2.5" fill="#005f73"/>
<circle cx="220.13" cy="114.69" r="2.5" fill="#005f73"/>
<circle cx="242.49" cy="113.40" r="2.5" fill="#005f73"/>
<circle cx="264.84" cy="112.38" r="2.5" fill="#005f73"/>
<circle cx="287.20" cy="111.35" r="2.5" fill="#005f73"/>
<circle cx="309.56" cy="110.41" r="2.5" fill="#005f73"/>
<circle cx="331.91" cy="109.64" r="2.5" fill="#005f73"/>
<circle cx="354.27" cy="108.87" r="2.5" fill="#005f73"/>
<circle cx="376.62" cy="108.10" r="2.5" fill="#005f73"/>
<circle cx="398.98" cy="108.27" r="2.5" fill="#005f73"/>
<circle cx="421.33" cy="108.27" r="2.5" fill="#005f73"/>
<circle cx="443.69" cy="107.68" r="2.5" fill="#005f73"/>
<circle cx="466.04" cy="107.16" r="2.5" fill="#005f73"/>
<circle cx="488.40" cy="106.73" r="2.5" fill="#005f73"/>
<circle cx="510.76" cy="107.16" r="2.5" fill="#005f73"/>
<circle cx="533.11" cy="107.59" r="2.5" fill="#005f73"/>
<circle cx="555.47" cy="107.25" r="2.5" fill="#005f73"/>
<circle cx="577.82" cy="106.82" r="2.5" fill="#005f73"/>
<circle cx="600.18" cy="106.82" r="2.5" fill="#005f73"/>
<circle cx="622.53" cy="106.48" r="2.5" fill="#005f73"/>
<circle cx="644.89" cy="106.14" r="2.5" fill="#005f73"/>
<circle cx="667.24" cy="105.79" r="2.5" fill="#005f73"/>
<circle cx="689.60" cy="106.31" r="2.5" fill="#005f73"/>
<circle cx="711.96" cy="106.91" r="2.5" fill="#005f73"/>
<circle cx="734.31" cy="106.56" r="2.5" fill="#005f73"/>
<circle cx="756.67" cy="106.31" r="2.5" fill="#005f73"/>
<circle cx="779.02" cy="106.05" r="2.5" fill="#005f73"/>
<circle cx="801.38" cy="105.79" r="2.5" fill="#005f73"/>
<circle cx="823.73" cy="106.39" r="2.5" fill="#005f73"/>
<circle cx="846.09" cy="106.91" r="2.5" fill="#005f73"/>
<circle cx="868.44" cy="106.65" r="2.5" fill="#005f73"/>
<circle cx="890.80" cy="106.39" r="2.5" fill="#005f73"/>
<circle cx="913.16" cy="106.14" r="2.5" fill="#005f73"/>
<circle cx="935.51" cy="105.97" r="2.5" fill="#005f73"/>
<circle cx="957.87" cy="105.71" r="2.5" fill="#005f73"/>
<circle cx="980.22" cy="105.45" r="2.5" fill="#005f73"/>
<circle cx="1002.58" cy="106.05" r="2.5" fill="#005f73"/>
<circle cx="1024.93" cy="106.65" r="2.5" fill="#005f73"/>
<circle cx="1047.29" cy="106.39" r="2.5" fill="#005f73"/>
<circle cx="1069.64" cy="106.14" r="2.5" fill="#005f73"/>
<circle cx="1092.00" cy="105.97" r="2.5" fill="#005f73"/>
<polyline fill="none" stroke="#ae2012" stroke-width="1.7" stroke-linejoin="round" stroke-linecap="round" points="86.00,280.83 108.36,105.54 130.71,91.17 153.07,92.88 175.42,95.45 197.78,97.24 220.13,98.44 242.49,99.38 264.84,100.24 287.20,100.83 309.56,101.43 331.91,101.78 354.27,102.12 376.62,102.29 398.98,102.89 421.33,103.74 443.69,104.17 466.04,104.17 488.40,104.17 510.76,104.51 533.11,105.20 555.47,105.54 577.82,105.45 600.18,105.45 622.53,105.28 644.89,105.11 667.24,104.94 689.60,105.20 711.96,105.79 734.31,106.05 756.67,105.88 779.02,105.71 801.38,105.45 823.73,105.71 846.09,106.31 868.44,106.56 890.80,106.31 913.16,106.05 935.51,105.88 957.87,105.62 980.22,105.45 1002.58,105.62 1024.93,106.22 1047.29,106.48 1069.64,106.22 1092.00,105.97"/>
<circle cx="86.00" cy="280.83" r="2.5" fill="#ae2012"/>
<circle cx="108.36" cy="105.54" r="2.5" fill="#ae2012"/>
<circle cx="130.71" cy="91.17" r="2.5" fill="#ae2012"/>
<circle cx="153.07" cy="92.88" r="2.5" fill="#ae2012"/>
<circle cx="175.42" cy="95.45" r="2.5" fill="#ae2012"/>
<circle cx="197.78" cy="97.24" r="2.5" fill="#ae2012"/>
<circle cx="220.13" cy="98.44" r="2.5" fill="#ae2012"/>
<circle cx="242.49" cy="99.38" r="2.5" fill="#ae2012"/>
<circle cx="264.84" cy="100.24" r="2.5" fill="#ae2012"/>
<circle cx="287.20" cy="100.83" r="2.5" fill="#ae2012"/>
<circle cx="309.56" cy="101.43" r="2.5" fill="#ae2012"/>
<circle cx="331.91" cy="101.78" r="2.5" fill="#ae2012"/>
<circle cx="354.27" cy="102.12" r="2.5" fill="#ae2012"/>
<circle cx="376.62" cy="102.29" r="2.5" fill="#ae2012"/>
<circle cx="398.98" cy="102.89" r="2.5" fill="#ae2012"/>
<circle cx="421.33" cy="103.74" r="2.5" fill="#ae2012"/>
<circle cx="443.69" cy="104.17" r="2.5" fill="#ae2012"/>
<circle cx="466.04" cy="104.17" r="2.5" fill="#ae2012"/>
<circle cx="488.40" cy="104.17" r="2.5" fill="#ae2012"/>
<circle cx="510.76" cy="104.51" r="2.5" fill="#ae2012"/>
<circle cx="533.11" cy="105.20" r="2.5" fill="#ae2012"/>
<circle cx="555.47" cy="105.54" r="2.5" fill="#ae2012"/>
<circle cx="577.82" cy="105.45" r="2.5" fill="#ae2012"/>
<circle cx="600.18" cy="105.45" r="2.5" fill="#ae2012"/>
<circle cx="622.53" cy="105.28" r="2.5" fill="#ae2012"/>
<circle cx="644.89" cy="105.11" r="2.5" fill="#ae2012"/>
<circle cx="667.24" cy="104.94" r="2.5" fill="#ae2012"/>
<circle cx="689.60" cy="105.20" r="2.5" fill="#ae2012"/>
<circle cx="711.96" cy="105.79" r="2.5" fill="#ae2012"/>
<circle cx="734.31" cy="106.05" r="2.5" fill="#ae2012"/>
<circle cx="756.67" cy="105.88" r="2.5" fill="#ae2012"/>
<circle cx="779.02" cy="105.71" r="2.5" fill="#ae2012"/>
<circle cx="801.38" cy="105.45" r="2.5" fill="#ae2012"/>
<circle cx="823.73" cy="105.71" r="2.5" fill="#ae2012"/>
<circle cx="846.09" cy="106.31" r="2.5" fill="#ae2012"/>
<circle cx="868.44" cy="106.56" r="2.5" fill="#ae2012"/>
<circle cx="890.80" cy="106.31" r="2.5" fill="#ae2012"/>
<circle cx="913.16" cy="106.05" r="2.5" fill="#ae2012"/>
<circle cx="935.51" cy="105.88" r="2.5" fill="#ae2012"/>
<circle cx="957.87" cy="105.62" r="2.5" fill="#ae2012"/>
<circle cx="980.22" cy="105.45" r="2.5" fill="#ae2012"/>
<circle cx="1002.58" cy="105.62" r="2.5" fill="#ae2012"/>
<circle cx="1024.93" cy="106.22" r="2.5" fill="#ae2012"/>
<circle cx="1047.29" cy="106.48" r="2.5" fill="#ae2012"/>
<circle cx="1069.64" cy="106.22" r="2.5" fill="#ae2012"/>
<circle cx="1092.00" cy="105.97" r="2.5" fill="#ae2012"/>
<line x1="94" y1="94" x2="118" y2="94" stroke="#005f73" stroke-width="3"/>
<text x="125" y="98" font-family="Arial, sans-serif" font-size="12" fill="#374151">DD1 code</text>
<line x1="240" y1="94" x2="264" y2="94" stroke="#ae2012" stroke-width="3"/>
<text x="271" y="98" font-family="Arial, sans-serif" font-size="12" fill="#374151">DD2 code</text>
<text x="86" y="337" font-family="Arial, sans-serif" font-size="15" font-weight="700" fill="#202124">Signed loop error converging to zero</text>
<rect x="86" y="351" width="1006" height="220" fill="#ffffff" stroke="#dadce0" stroke-width="1"/>
<line x1="86" y1="571.00" x2="1092" y2="571.00" stroke="#eceff1" stroke-width="1"/>
<text x="76" y="575.00" font-family="Arial, sans-serif" font-size="11" text-anchor="end" fill="#6b7280">-360</text>
<line x1="86" y1="516.00" x2="1092" y2="516.00" stroke="#eceff1" stroke-width="1"/>
<text x="76" y="520.00" font-family="Arial, sans-serif" font-size="11" text-anchor="end" fill="#6b7280">-180</text>
<line x1="86" y1="461.00" x2="1092" y2="461.00" stroke="#eceff1" stroke-width="1"/>
<text x="76" y="465.00" font-family="Arial, sans-serif" font-size="11" text-anchor="end" fill="#6b7280">0</text>
<line x1="86" y1="406.00" x2="1092" y2="406.00" stroke="#eceff1" stroke-width="1"/>
<text x="76" y="410.00" font-family="Arial, sans-serif" font-size="11" text-anchor="end" fill="#6b7280">180</text>
<line x1="86" y1="351.00" x2="1092" y2="351.00" stroke="#eceff1" stroke-width="1"/>
<text x="76" y="355.00" font-family="Arial, sans-serif" font-size="11" text-anchor="end" fill="#6b7280">360</text>
<line x1="86.00" y1="351" x2="86.00" y2="571" stroke="#f1f3f4" stroke-width="1"/>
<text x="86.00" y="592" font-family="Arial, sans-serif" font-size="11" text-anchor="middle" fill="#6b7280">0.0</text>
<line x1="337.50" y1="351" x2="337.50" y2="571" stroke="#f1f3f4" stroke-width="1"/>
<text x="337.50" y="592" font-family="Arial, sans-serif" font-size="11" text-anchor="middle" fill="#6b7280">11.2</text>
<line x1="589.00" y1="351" x2="589.00" y2="571" stroke="#f1f3f4" stroke-width="1"/>
<text x="589.00" y="592" font-family="Arial, sans-serif" font-size="11" text-anchor="middle" fill="#6b7280">22.5</text>
<line x1="840.50" y1="351" x2="840.50" y2="571" stroke="#f1f3f4" stroke-width="1"/>
<text x="840.50" y="592" font-family="Arial, sans-serif" font-size="11" text-anchor="middle" fill="#6b7280">33.8</text>
<line x1="1092.00" y1="351" x2="1092.00" y2="571" stroke="#f1f3f4" stroke-width="1"/>
<text x="1092.00" y="592" font-family="Arial, sans-serif" font-size="11" text-anchor="middle" fill="#6b7280">45.0</text>
<line x1="86" y1="461.00" x2="1092" y2="461.00" stroke="#9aa0a6" stroke-width="1.2" stroke-dasharray="5,5"/>
<text x="26" y="461.00" transform="rotate(-90 26,461.00)" font-family="Arial, sans-serif" font-size="12" text-anchor="middle" fill="#5f6368">signed code</text>
<polyline fill="none" stroke="#0a9396" stroke-width="1.7" stroke-linejoin="round" stroke-linecap="round" points="86.00,461.00 108.36,466.20 130.71,366.17 153.07,370.76 175.42,382.08 197.78,394.01 220.13,402.88 242.49,410.83 264.84,417.56 287.20,423.37 309.56,428.88 331.91,432.86 354.27,436.83 376.62,440.20 398.98,441.73 421.33,444.79 443.69,448.46 466.04,450.29 488.40,451.82 510.76,451.52 533.11,452.43 555.47,454.88 577.82,456.11 600.18,456.11 622.53,456.72 644.89,457.33 667.24,457.94 689.60,457.02 711.96,457.02 734.31,459.16 756.67,459.47 779.02,459.78 801.38,459.78 823.73,458.55 846.09,458.86 868.44,460.69 890.80,460.69 913.16,460.69 935.51,460.69 957.87,460.69 980.22,461.00 1002.58,459.47 1024.93,459.47 1047.29,461.31 1069.64,461.31 1092.00,461.00"/>
<circle cx="86.00" cy="461.00" r="2.5" fill="#0a9396"/>
<circle cx="108.36" cy="466.20" r="2.5" fill="#0a9396"/>
<circle cx="130.71" cy="366.17" r="2.5" fill="#0a9396"/>
<circle cx="153.07" cy="370.76" r="2.5" fill="#0a9396"/>
<circle cx="175.42" cy="382.08" r="2.5" fill="#0a9396"/>
<circle cx="197.78" cy="394.01" r="2.5" fill="#0a9396"/>
<circle cx="220.13" cy="402.88" r="2.5" fill="#0a9396"/>
<circle cx="242.49" cy="410.83" r="2.5" fill="#0a9396"/>
<circle cx="264.84" cy="417.56" r="2.5" fill="#0a9396"/>
<circle cx="287.20" cy="423.37" r="2.5" fill="#0a9396"/>
<circle cx="309.56" cy="428.88" r="2.5" fill="#0a9396"/>
<circle cx="331.91" cy="432.86" r="2.5" fill="#0a9396"/>
<circle cx="354.27" cy="436.83" r="2.5" fill="#0a9396"/>
<circle cx="376.62" cy="440.20" r="2.5" fill="#0a9396"/>
<circle cx="398.98" cy="441.73" r="2.5" fill="#0a9396"/>
<circle cx="421.33" cy="444.79" r="2.5" fill="#0a9396"/>
<circle cx="443.69" cy="448.46" r="2.5" fill="#0a9396"/>
<circle cx="466.04" cy="450.29" r="2.5" fill="#0a9396"/>
<circle cx="488.40" cy="451.82" r="2.5" fill="#0a9396"/>
<circle cx="510.76" cy="451.52" r="2.5" fill="#0a9396"/>
<circle cx="533.11" cy="452.43" r="2.5" fill="#0a9396"/>
<circle cx="555.47" cy="454.88" r="2.5" fill="#0a9396"/>
<circle cx="577.82" cy="456.11" r="2.5" fill="#0a9396"/>
<circle cx="600.18" cy="456.11" r="2.5" fill="#0a9396"/>
<circle cx="622.53" cy="456.72" r="2.5" fill="#0a9396"/>
<circle cx="644.89" cy="457.33" r="2.5" fill="#0a9396"/>
<circle cx="667.24" cy="457.94" r="2.5" fill="#0a9396"/>
<circle cx="689.60" cy="457.02" r="2.5" fill="#0a9396"/>
<circle cx="711.96" cy="457.02" r="2.5" fill="#0a9396"/>
<circle cx="734.31" cy="459.16" r="2.5" fill="#0a9396"/>
<circle cx="756.67" cy="459.47" r="2.5" fill="#0a9396"/>
<circle cx="779.02" cy="459.78" r="2.5" fill="#0a9396"/>
<circle cx="801.38" cy="459.78" r="2.5" fill="#0a9396"/>
<circle cx="823.73" cy="458.55" r="2.5" fill="#0a9396"/>
<circle cx="846.09" cy="458.86" r="2.5" fill="#0a9396"/>
<circle cx="868.44" cy="460.69" r="2.5" fill="#0a9396"/>
<circle cx="890.80" cy="460.69" r="2.5" fill="#0a9396"/>
<circle cx="913.16" cy="460.69" r="2.5" fill="#0a9396"/>
<circle cx="935.51" cy="460.69" r="2.5" fill="#0a9396"/>
<circle cx="957.87" cy="460.69" r="2.5" fill="#0a9396"/>
<circle cx="980.22" cy="461.00" r="2.5" fill="#0a9396"/>
<circle cx="1002.58" cy="459.47" r="2.5" fill="#0a9396"/>
<circle cx="1024.93" cy="459.47" r="2.5" fill="#0a9396"/>
<circle cx="1047.29" cy="461.31" r="2.5" fill="#0a9396"/>
<circle cx="1069.64" cy="461.31" r="2.5" fill="#0a9396"/>
<circle cx="1092.00" cy="461.00" r="2.5" fill="#0a9396"/>
<polyline fill="none" stroke="#ca6702" stroke-width="1.7" stroke-linejoin="round" stroke-linecap="round" points="86.00,461.00 108.36,455.80 130.71,555.83 153.07,551.24 175.42,539.92 197.78,527.99 220.13,519.12 242.49,511.17 264.84,504.44 287.20,498.63 309.56,493.12 331.91,489.14 354.27,485.17 376.62,481.80 398.98,480.27 421.33,477.21 443.69,473.54 466.04,471.71 488.40,470.18 510.76,470.48 533.11,469.57 555.47,467.12 577.82,465.89 600.18,465.89 622.53,465.28 644.89,464.67 667.24,464.06 689.60,464.98 711.96,464.98 734.31,462.84 756.67,462.53 779.02,462.22 801.38,462.22 823.73,463.45 846.09,463.14 868.44,461.31 890.80,461.31 913.16,461.31 935.51,461.31 957.87,461.31 980.22,461.00 1002.58,462.53 1024.93,462.53 1047.29,460.69 1069.64,460.69 1092.00,461.00"/>
<circle cx="86.00" cy="461.00" r="2.5" fill="#ca6702"/>
<circle cx="108.36" cy="455.80" r="2.5" fill="#ca6702"/>
<circle cx="130.71" cy="555.83" r="2.5" fill="#ca6702"/>
<circle cx="153.07" cy="551.24" r="2.5" fill="#ca6702"/>
<circle cx="175.42" cy="539.92" r="2.5" fill="#ca6702"/>
<circle cx="197.78" cy="527.99" r="2.5" fill="#ca6702"/>
<circle cx="220.13" cy="519.12" r="2.5" fill="#ca6702"/>
<circle cx="242.49" cy="511.17" r="2.5" fill="#ca6702"/>
<circle cx="264.84" cy="504.44" r="2.5" fill="#ca6702"/>
<circle cx="287.20" cy="498.63" r="2.5" fill="#ca6702"/>
<circle cx="309.56" cy="493.12" r="2.5" fill="#ca6702"/>
<circle cx="331.91" cy="489.14" r="2.5" fill="#ca6702"/>
<circle cx="354.27" cy="485.17" r="2.5" fill="#ca6702"/>
<circle cx="376.62" cy="481.80" r="2.5" fill="#ca6702"/>
<circle cx="398.98" cy="480.27" r="2.5" fill="#ca6702"/>
<circle cx="421.33" cy="477.21" r="2.5" fill="#ca6702"/>
<circle cx="443.69" cy="473.54" r="2.5" fill="#ca6702"/>
<circle cx="466.04" cy="471.71" r="2.5" fill="#ca6702"/>
<circle cx="488.40" cy="470.18" r="2.5" fill="#ca6702"/>
<circle cx="510.76" cy="470.48" r="2.5" fill="#ca6702"/>
<circle cx="533.11" cy="469.57" r="2.5" fill="#ca6702"/>
<circle cx="555.47" cy="467.12" r="2.5" fill="#ca6702"/>
<circle cx="577.82" cy="465.89" r="2.5" fill="#ca6702"/>
<circle cx="600.18" cy="465.89" r="2.5" fill="#ca6702"/>
<circle cx="622.53" cy="465.28" r="2.5" fill="#ca6702"/>
<circle cx="644.89" cy="464.67" r="2.5" fill="#ca6702"/>
<circle cx="667.24" cy="464.06" r="2.5" fill="#ca6702"/>
<circle cx="689.60" cy="464.98" r="2.5" fill="#ca6702"/>
<circle cx="711.96" cy="464.98" r="2.5" fill="#ca6702"/>
<circle cx="734.31" cy="462.84" r="2.5" fill="#ca6702"/>
<circle cx="756.67" cy="462.53" r="2.5" fill="#ca6702"/>
<circle cx="779.02" cy="462.22" r="2.5" fill="#ca6702"/>
<circle cx="801.38" cy="462.22" r="2.5" fill="#ca6702"/>
<circle cx="823.73" cy="463.45" r="2.5" fill="#ca6702"/>
<circle cx="846.09" cy="463.14" r="2.5" fill="#ca6702"/>
<circle cx="868.44" cy="461.31" r="2.5" fill="#ca6702"/>
<circle cx="890.80" cy="461.31" r="2.5" fill="#ca6702"/>
<circle cx="913.16" cy="461.31" r="2.5" fill="#ca6702"/>
<circle cx="935.51" cy="461.31" r="2.5" fill="#ca6702"/>
<circle cx="957.87" cy="461.31" r="2.5" fill="#ca6702"/>
<circle cx="980.22" cy="461.00" r="2.5" fill="#ca6702"/>
<circle cx="1002.58" cy="462.53" r="2.5" fill="#ca6702"/>
<circle cx="1024.93" cy="462.53" r="2.5" fill="#ca6702"/>
<circle cx="1047.29" cy="460.69" r="2.5" fill="#ca6702"/>
<circle cx="1069.64" cy="460.69" r="2.5" fill="#ca6702"/>
<circle cx="1092.00" cy="461.00" r="2.5" fill="#ca6702"/>
<line x1="94" y1="369" x2="118" y2="369" stroke="#0a9396" stroke-width="3"/>
<text x="125" y="373" font-family="Arial, sans-serif" font-size="12" fill="#374151">DD2-DD1 error</text>
<line x1="270" y1="369" x2="294" y2="369" stroke="#ca6702" stroke-width="3"/>
<text x="301" y="373" font-family="Arial, sans-serif" font-size="12" fill="#374151">DIFF</text>
<text x="86" y="612" font-family="Arial, sans-serif" font-size="15" font-weight="700" fill="#202124">DLF/CDAC drive</text>
<rect x="86" y="626" width="1006" height="220" fill="#ffffff" stroke="#dadce0" stroke-width="1"/>
<line x1="86" y1="846.00" x2="1092" y2="846.00" stroke="#eceff1" stroke-width="1"/>
<text x="76" y="850.00" font-family="Arial, sans-serif" font-size="11" text-anchor="end" fill="#6b7280">6.11e+04</text>
<line x1="86" y1="791.00" x2="1092" y2="791.00" stroke="#eceff1" stroke-width="1"/>
<text x="76" y="795.00" font-family="Arial, sans-serif" font-size="11" text-anchor="end" fill="#6b7280">6.25e+04</text>
<line x1="86" y1="736.00" x2="1092" y2="736.00" stroke="#eceff1" stroke-width="1"/>
<text x="76" y="740.00" font-family="Arial, sans-serif" font-size="11" text-anchor="end" fill="#6b7280">6.39e+04</text>
<line x1="86" y1="681.00" x2="1092" y2="681.00" stroke="#eceff1" stroke-width="1"/>
<text x="76" y="685.00" font-family="Arial, sans-serif" font-size="11" text-anchor="end" fill="#6b7280">6.53e+04</text>
<line x1="86" y1="626.00" x2="1092" y2="626.00" stroke="#eceff1" stroke-width="1"/>
<text x="76" y="630.00" font-family="Arial, sans-serif" font-size="11" text-anchor="end" fill="#6b7280">6.67e+04</text>
<line x1="86.00" y1="626" x2="86.00" y2="846" stroke="#f1f3f4" stroke-width="1"/>
<text x="86.00" y="867" font-family="Arial, sans-serif" font-size="11" text-anchor="middle" fill="#6b7280">0.0</text>
<line x1="337.50" y1="626" x2="337.50" y2="846" stroke="#f1f3f4" stroke-width="1"/>
<text x="337.50" y="867" font-family="Arial, sans-serif" font-size="11" text-anchor="middle" fill="#6b7280">11.2</text>
<line x1="589.00" y1="626" x2="589.00" y2="846" stroke="#f1f3f4" stroke-width="1"/>
<text x="589.00" y="867" font-family="Arial, sans-serif" font-size="11" text-anchor="middle" fill="#6b7280">22.5</text>
<line x1="840.50" y1="626" x2="840.50" y2="846" stroke="#f1f3f4" stroke-width="1"/>
<text x="840.50" y="867" font-family="Arial, sans-serif" font-size="11" text-anchor="middle" fill="#6b7280">33.8</text>
<line x1="1092.00" y1="626" x2="1092.00" y2="846" stroke="#f1f3f4" stroke-width="1"/>
<text x="1092.00" y="867" font-family="Arial, sans-serif" font-size="11" text-anchor="middle" fill="#6b7280">45.0</text>
<text x="26" y="736.00" transform="rotate(-90 26,736.00)" font-family="Arial, sans-serif" font-size="12" text-anchor="middle" fill="#5f6368">offset-binary code</text>
<polyline fill="none" stroke="#3a0ca3" stroke-width="1.7" stroke-linejoin="round" stroke-linecap="round" points="86.00,672.34 108.36,830.83 130.71,819.13 153.07,796.68 175.42,776.15 197.78,757.80 220.13,741.92 242.49,728.06 264.84,716.14 287.20,705.68 309.56,696.70 331.91,688.88 354.27,682.06 376.62,676.10 398.98,671.37 421.33,667.27 443.69,663.55 466.04,660.38 488.40,657.67 510.76,655.65 533.11,653.87 555.47,652.01 577.82,650.39 600.18,650.39 622.53,648.99 644.89,647.75 667.24,646.67 689.60,646.13 711.96,645.66 734.31,644.89 756.67,644.27 779.02,643.73 801.38,643.19 823.73,643.11 846.09,643.03 868.44,642.72 890.80,642.41 913.16,642.10 935.51,641.87 957.87,641.56 980.22,641.33 1002.58,641.48 1024.93,641.64 1047.29,641.48 1069.64,641.33 1092.00,641.17"/>
<circle cx="86.00" cy="672.34" r="2.5" fill="#3a0ca3"/>
<circle cx="108.36" cy="830.83" r="2.5" fill="#3a0ca3"/>
<circle cx="130.71" cy="819.13" r="2.5" fill="#3a0ca3"/>
<circle cx="153.07" cy="796.68" r="2.5" fill="#3a0ca3"/>
<circle cx="175.42" cy="776.15" r="2.5" fill="#3a0ca3"/>
<circle cx="197.78" cy="757.80" r="2.5" fill="#3a0ca3"/>
<circle cx="220.13" cy="741.92" r="2.5" fill="#3a0ca3"/>
<circle cx="242.49" cy="728.06" r="2.5" fill="#3a0ca3"/>
<circle cx="264.84" cy="716.14" r="2.5" fill="#3a0ca3"/>
<circle cx="287.20" cy="705.68" r="2.5" fill="#3a0ca3"/>
<circle cx="309.56" cy="696.70" r="2.5" fill="#3a0ca3"/>
<circle cx="331.91" cy="688.88" r="2.5" fill="#3a0ca3"/>
<circle cx="354.27" cy="682.06" r="2.5" fill="#3a0ca3"/>
<circle cx="376.62" cy="676.10" r="2.5" fill="#3a0ca3"/>
<circle cx="398.98" cy="671.37" r="2.5" fill="#3a0ca3"/>
<circle cx="421.33" cy="667.27" r="2.5" fill="#3a0ca3"/>
<circle cx="443.69" cy="663.55" r="2.5" fill="#3a0ca3"/>
<circle cx="466.04" cy="660.38" r="2.5" fill="#3a0ca3"/>
<circle cx="488.40" cy="657.67" r="2.5" fill="#3a0ca3"/>
<circle cx="510.76" cy="655.65" r="2.5" fill="#3a0ca3"/>
<circle cx="533.11" cy="653.87" r="2.5" fill="#3a0ca3"/>
<circle cx="555.47" cy="652.01" r="2.5" fill="#3a0ca3"/>
<circle cx="577.82" cy="650.39" r="2.5" fill="#3a0ca3"/>
<circle cx="600.18" cy="650.39" r="2.5" fill="#3a0ca3"/>
<circle cx="622.53" cy="648.99" r="2.5" fill="#3a0ca3"/>
<circle cx="644.89" cy="647.75" r="2.5" fill="#3a0ca3"/>
<circle cx="667.24" cy="646.67" r="2.5" fill="#3a0ca3"/>
<circle cx="689.60" cy="646.13" r="2.5" fill="#3a0ca3"/>
<circle cx="711.96" cy="645.66" r="2.5" fill="#3a0ca3"/>
<circle cx="734.31" cy="644.89" r="2.5" fill="#3a0ca3"/>
<circle cx="756.67" cy="644.27" r="2.5" fill="#3a0ca3"/>
<circle cx="779.02" cy="643.73" r="2.5" fill="#3a0ca3"/>
<circle cx="801.38" cy="643.19" r="2.5" fill="#3a0ca3"/>
<circle cx="823.73" cy="643.11" r="2.5" fill="#3a0ca3"/>
<circle cx="846.09" cy="643.03" r="2.5" fill="#3a0ca3"/>
<circle cx="868.44" cy="642.72" r="2.5" fill="#3a0ca3"/>
<circle cx="890.80" cy="642.41" r="2.5" fill="#3a0ca3"/>
<circle cx="913.16" cy="642.10" r="2.5" fill="#3a0ca3"/>
<circle cx="935.51" cy="641.87" r="2.5" fill="#3a0ca3"/>
<circle cx="957.87" cy="641.56" r="2.5" fill="#3a0ca3"/>
<circle cx="980.22" cy="641.33" r="2.5" fill="#3a0ca3"/>
<circle cx="1002.58" cy="641.48" r="2.5" fill="#3a0ca3"/>
<circle cx="1024.93" cy="641.64" r="2.5" fill="#3a0ca3"/>
<circle cx="1047.29" cy="641.48" r="2.5" fill="#3a0ca3"/>
<circle cx="1069.64" cy="641.33" r="2.5" fill="#3a0ca3"/>
<circle cx="1092.00" cy="641.17" r="2.5" fill="#3a0ca3"/>
<line x1="94" y1="644" x2="118" y2="644" stroke="#3a0ca3" stroke-width="3"/>
<text x="125" y="648" font-family="Arial, sans-serif" font-size="12" fill="#374151">D code</text>
<text x="86" y="887" font-family="Arial, sans-serif" font-size="15" font-weight="700" fill="#202124">oref actuator</text>
<rect x="86" y="901" width="1006" height="220" fill="#ffffff" stroke="#dadce0" stroke-width="1"/>
<line x1="86" y1="1121.00" x2="1092" y2="1121.00" stroke="#eceff1" stroke-width="1"/>
<text x="76" y="1125.00" font-family="Arial, sans-serif" font-size="11" text-anchor="end" fill="#6b7280">0.487</text>
<line x1="86" y1="1066.00" x2="1092" y2="1066.00" stroke="#eceff1" stroke-width="1"/>
<text x="76" y="1070.00" font-family="Arial, sans-serif" font-size="11" text-anchor="end" fill="#6b7280">0.498</text>
<line x1="86" y1="1011.00" x2="1092" y2="1011.00" stroke="#eceff1" stroke-width="1"/>
<text x="76" y="1015.00" font-family="Arial, sans-serif" font-size="11" text-anchor="end" fill="#6b7280">0.509</text>
<line x1="86" y1="956.00" x2="1092" y2="956.00" stroke="#eceff1" stroke-width="1"/>
<text x="76" y="960.00" font-family="Arial, sans-serif" font-size="11" text-anchor="end" fill="#6b7280">0.52</text>
<line x1="86" y1="901.00" x2="1092" y2="901.00" stroke="#eceff1" stroke-width="1"/>
<text x="76" y="905.00" font-family="Arial, sans-serif" font-size="11" text-anchor="end" fill="#6b7280">0.531</text>
<line x1="86.00" y1="901" x2="86.00" y2="1121" stroke="#f1f3f4" stroke-width="1"/>
<text x="86.00" y="1142" font-family="Arial, sans-serif" font-size="11" text-anchor="middle" fill="#6b7280">0.0</text>
<line x1="337.50" y1="901" x2="337.50" y2="1121" stroke="#f1f3f4" stroke-width="1"/>
<text x="337.50" y="1142" font-family="Arial, sans-serif" font-size="11" text-anchor="middle" fill="#6b7280">11.2</text>
<line x1="589.00" y1="901" x2="589.00" y2="1121" stroke="#f1f3f4" stroke-width="1"/>
<text x="589.00" y="1142" font-family="Arial, sans-serif" font-size="11" text-anchor="middle" fill="#6b7280">22.5</text>
<line x1="840.50" y1="901" x2="840.50" y2="1121" stroke="#f1f3f4" stroke-width="1"/>
<text x="840.50" y="1142" font-family="Arial, sans-serif" font-size="11" text-anchor="middle" fill="#6b7280">33.8</text>
<line x1="1092.00" y1="901" x2="1092.00" y2="1121" stroke="#f1f3f4" stroke-width="1"/>
<text x="1092.00" y="1142" font-family="Arial, sans-serif" font-size="11" text-anchor="middle" fill="#6b7280">45.0</text>
<text x="26" y="1011.00" transform="rotate(-90 26,1011.00)" font-family="Arial, sans-serif" font-size="12" text-anchor="middle" fill="#5f6368">V</text>
<polyline fill="none" stroke="#2b9348" stroke-width="1.7" stroke-linejoin="round" stroke-linecap="round" points="86.00,1055.26 108.36,916.17 130.71,926.35 153.07,957.09 175.42,985.54 197.78,1000.63 220.13,1013.44 242.49,1023.82 264.84,1032.41 287.20,1039.44 309.56,1044.56 331.91,1048.39 354.27,1051.37 376.62,1053.76 398.98,1065.44 421.33,1076.06 443.69,1075.75 466.04,1075.19 488.40,1074.64 510.76,1084.22 533.11,1093.23 555.47,1091.65 577.82,1089.69 600.18,1089.67 622.53,1087.64 644.89,1085.56 667.24,1083.76 689.60,1092.12 711.96,1100.01 734.31,1097.49 756.67,1094.95 779.02,1092.38 801.38,1090.23 823.73,1098.26 846.09,1105.83 868.44,1102.96 890.80,1100.12 913.16,1097.35 935.51,1094.57 957.87,1091.91 980.22,1089.51 1002.58,1097.43 1024.93,1104.84 1047.29,1101.88 1069.64,1098.94 1092.00,1096.11"/>
<circle cx="86.00" cy="1055.26" r="2.5" fill="#2b9348"/>
<circle cx="108.36" cy="916.17" r="2.5" fill="#2b9348"/>
<circle cx="130.71" cy="926.35" r="2.5" fill="#2b9348"/>
<circle cx="153.07" cy="957.09" r="2.5" fill="#2b9348"/>
<circle cx="175.42" cy="985.54" r="2.5" fill="#2b9348"/>
<circle cx="197.78" cy="1000.63" r="2.5" fill="#2b9348"/>
<circle cx="220.13" cy="1013.44" r="2.5" fill="#2b9348"/>
<circle cx="242.49" cy="1023.82" r="2.5" fill="#2b9348"/>
<circle cx="264.84" cy="1032.41" r="2.5" fill="#2b9348"/>
<circle cx="287.20" cy="1039.44" r="2.5" fill="#2b9348"/>
<circle cx="309.56" cy="1044.56" r="2.5" fill="#2b9348"/>
<circle cx="331.91" cy="1048.39" r="2.5" fill="#2b9348"/>
<circle cx="354.27" cy="1051.37" r="2.5" fill="#2b9348"/>
<circle cx="376.62" cy="1053.76" r="2.5" fill="#2b9348"/>
<circle cx="398.98" cy="1065.44" r="2.5" fill="#2b9348"/>
<circle cx="421.33" cy="1076.06" r="2.5" fill="#2b9348"/>
<circle cx="443.69" cy="1075.75" r="2.5" fill="#2b9348"/>
<circle cx="466.04" cy="1075.19" r="2.5" fill="#2b9348"/>
<circle cx="488.40" cy="1074.64" r="2.5" fill="#2b9348"/>
<circle cx="510.76" cy="1084.22" r="2.5" fill="#2b9348"/>
<circle cx="533.11" cy="1093.23" r="2.5" fill="#2b9348"/>
<circle cx="555.47" cy="1091.65" r="2.5" fill="#2b9348"/>
<circle cx="577.82" cy="1089.69" r="2.5" fill="#2b9348"/>
<circle cx="600.18" cy="1089.67" r="2.5" fill="#2b9348"/>
<circle cx="622.53" cy="1087.64" r="2.5" fill="#2b9348"/>
<circle cx="644.89" cy="1085.56" r="2.5" fill="#2b9348"/>
<circle cx="667.24" cy="1083.76" r="2.5" fill="#2b9348"/>
<circle cx="689.60" cy="1092.12" r="2.5" fill="#2b9348"/>
<circle cx="711.96" cy="1100.01" r="2.5" fill="#2b9348"/>
<circle cx="734.31" cy="1097.49" r="2.5" fill="#2b9348"/>
<circle cx="756.67" cy="1094.95" r="2.5" fill="#2b9348"/>
<circle cx="779.02" cy="1092.38" r="2.5" fill="#2b9348"/>
<circle cx="801.38" cy="1090.23" r="2.5" fill="#2b9348"/>
<circle cx="823.73" cy="1098.26" r="2.5" fill="#2b9348"/>
<circle cx="846.09" cy="1105.83" r="2.5" fill="#2b9348"/>
<circle cx="868.44" cy="1102.96" r="2.5" fill="#2b9348"/>
<circle cx="890.80" cy="1100.12" r="2.5" fill="#2b9348"/>
<circle cx="913.16" cy="1097.35" r="2.5" fill="#2b9348"/>
<circle cx="935.51" cy="1094.57" r="2.5" fill="#2b9348"/>
<circle cx="957.87" cy="1091.91" r="2.5" fill="#2b9348"/>
<circle cx="980.22" cy="1089.51" r="2.5" fill="#2b9348"/>
<circle cx="1002.58" cy="1097.43" r="2.5" fill="#2b9348"/>
<circle cx="1024.93" cy="1104.84" r="2.5" fill="#2b9348"/>
<circle cx="1047.29" cy="1101.88" r="2.5" fill="#2b9348"/>
<circle cx="1069.64" cy="1098.94" r="2.5" fill="#2b9348"/>
<circle cx="1092.00" cy="1096.11" r="2.5" fill="#2b9348"/>
<line x1="94" y1="919" x2="118" y2="919" stroke="#2b9348" stroke-width="3"/>
<text x="125" y="923" font-family="Arial, sans-serif" font-size="12" fill="#374151">oref</text>
<text x="589.00" y="1159" font-family="Arial, sans-serif" font-size="12" text-anchor="middle" fill="#5f6368">DLF update index</text>
</svg>