<svg xmlns="http://www.w3.org/2000/svg" width="1120" height="904" viewBox="0 0 1120 904">
<rect width="100%" height="100%" fill="#fbfbf8"/>
<text x="86" y="34" font-family="Arial, sans-serif" font-size="22" font-weight="700" fill="#202124">DATA_OUT Hold Event Analysis</text>
<text x="86" y="58" font-family="Arial, sans-serif" font-size="13" fill="#5f6368">source: top/top_run.csv</text>
<text x="86" y="62" font-family="Arial, sans-serif" font-size="15" font-weight="700" fill="#202124">Unsigned CP code captured at hold edge</text>
<rect x="86" y="76" width="1006" height="220" fill="#ffffff" stroke="#dadce0" stroke-width="1"/>
<line x1="86" y1="296.00" x2="1092" y2="296.00" stroke="#eceff1" stroke-width="1"/>
<text x="76" y="300.00" font-family="Arial, sans-serif" font-size="11" text-anchor="end" fill="#6b7280">1.88e+03</text>
<line x1="86" y1="241.00" x2="1092" y2="241.00" stroke="#eceff1" stroke-width="1"/>
<text x="76" y="245.00" font-family="Arial, sans-serif" font-size="11" text-anchor="end" fill="#6b7280">1.97e+03</text>
<line x1="86" y1="186.00" x2="1092" y2="186.00" stroke="#eceff1" stroke-width="1"/>
<text x="76" y="190.00" font-family="Arial, sans-serif" font-size="11" text-anchor="end" fill="#6b7280">2.06e+03</text>
<line x1="86" y1="131.00" x2="1092" y2="131.00" stroke="#eceff1" stroke-width="1"/>
<text x="76" y="135.00" font-family="Arial, sans-serif" font-size="11" text-anchor="end" fill="#6b7280">2.15e+03</text>
<line x1="86" y1="76.00" x2="1092" y2="76.00" stroke="#eceff1" stroke-width="1"/>
<text x="76" y="80.00" font-family="Arial, sans-serif" font-size="11" text-anchor="end" fill="#6b7280">2.24e+03</text>
<line x1="86.00" y1="76" x2="86.00" y2="296" stroke="#f1f3f4" stroke-width="1"/>
<text x="86.00" y="317" font-family="Arial, sans-serif" font-size="11" text-anchor="middle" fill="#6b7280">0.0</text>
<line x1="337.50" y1="76" x2="337.50" y2="296" stroke="#f1f3f4" stroke-width="1"/>
<text x="337.50" y="317" font-family="Arial, sans-serif" font-size="11" text-anchor="middle" fill="#6b7280">22.0</text>
<line x1="589.00" y1="76" x2="589.00" y2="296" stroke="#f1f3f4" stroke-width="1"/>
<text x="589.00" y="317" font-family="Arial, sans-serif" font-size="11" text-anchor="middle" fill="#6b7280">44.0</text>
<line x1="840.50" y1="76" x2="840.50" y2="296" stroke="#f1f3f4" stroke-width="1"/>
<text x="840.50" y="317" font-family="Arial, sans-serif" font-size="11" text-anchor="middle" fill="#6b7280">66.0</text>
<line x1="1092.00" y1="76" x2="1092.00" y2="296" stroke="#f1f3f4" stroke-width="1"/>
<text x="1092.00" y="317" font-family="Arial, sans-serif" font-size="11" text-anchor="middle" fill="#6b7280">88.0</text>
<text x="26" y="186.00" transform="rotate(-90 26,186.00)" font-family="Arial, sans-serif" font-size="12" text-anchor="middle" fill="#5f6368">unsigned code</text>
<polyline fill="none" stroke="#005f73" stroke-width="1.7" stroke-linejoin="round" stroke-linecap="round" points="86.00,192.32 97.43,193.53 108.86,91.17 120.30,193.53 131.73,103.21 143.16,193.53 154.59,121.28 166.02,193.53 177.45,133.92 188.89,193.53 200.32,142.35 211.75,193.53 223.18,148.97 234.61,193.53 246.05,154.99 257.48,193.53 268.91,159.21 280.34,193.53 291.77,163.42 303.20,193.53 314.64,165.83 326.07,193.53 337.50,168.24 348.93,193.53 360.36,169.44 371.80,193.53 383.23,173.66 394.66,193.53 406.09,179.68 417.52,193.53 428.95,182.69 440.39,193.53 451.82,182.69 463.25,193.53 474.68,182.69 486.11,193.53 497.55,185.10 508.98,193.53 520.41,189.91 531.84,193.53 543.27,192.32 554.70,193.53 566.14,191.72 577.57,193.53 589.00,190.52 600.43,193.53 611.86,189.31 623.30,193.53 634.73,188.11 646.16,193.53 657.59,189.91 669.02,193.53 680.45,194.13 691.89,193.53 703.32,195.93 714.75,193.53 726.18,194.73 737.61,193.53 749.05,193.53 760.48,193.53 771.91,191.72 783.34,193.53 794.77,193.53 806.20,193.53 817.64,197.74 829.07,193.53 840.50,199.55 851.93,193.53 863.36,197.74 874.80,193.53 886.23,195.93 897.66,193.53 909.09,194.73 920.52,193.53 931.95,192.92 943.39,193.53 954.82,191.72 966.25,193.53 977.68,192.92 989.11,193.53 1000.55,197.14 1011.98,193.53 1023.41,198.94 1034.84,193.53 1046.27,197.14 1057.70,193.53 1069.14,195.33 1080.57,193.53 1092.00,194.13"/>
<circle cx="86.00" cy="192.32" r="2.5" fill="#005f73"/>
<circle cx="97.43" cy="193.53" r="2.5" fill="#005f73"/>
<circle cx="108.86" cy="91.17" r="2.5" fill="#005f73"/>
<circle cx="120.30" cy="193.53" r="2.5" fill="#005f73"/>
<circle cx="131.73" cy="103.21" r="2.5" fill="#005f73"/>
<circle cx="143.16" cy="193.53" r="2.5" fill="#005f73"/>
<circle cx="154.59" cy="121.28" r="2.5" fill="#005f73"/>
<circle cx="166.02" cy="193.53" r="2.5" fill="#005f73"/>
<circle cx="177.45" cy="133.92" r="2.5" fill="#005f73"/>
<circle cx="188.89" cy="193.53" r="2.5" fill="#005f73"/>
<circle cx="200.32" cy="142.35" r="2.5" fill="#005f73"/>
<circle cx="211.75" cy="193.53" r="2.5" fill="#005f73"/>
<circle cx="223.18" cy="148.97" r="2.5" fill="#005f73"/>
<circle cx="234.61" cy="193.53" r="2.5" fill="#005f73"/>
<circle cx="246.05" cy="154.99" r="2.5" fill="#005f73"/>
<circle cx="257.48" cy="193.53" r="2.5" fill="#005f73"/>
<circle cx="268.91" cy="159.21" r="2.5" fill="#005f73"/>
<circle cx="280.34" cy="193.53" r="2.5" fill="#005f73"/>
<circle cx="291.77" cy="163.42" r="2.5" fill="#005f73"/>
<circle cx="303.20" cy="193.53" r="2.5" fill="#005f73"/>
<circle cx="314.64" cy="165.83" r="2.5" fill="#005f73"/>
<circle cx="326.07" cy="193.53" r="2.5" fill="#005f73"/>
<circle cx="337.50" cy="168.24" r="2.5" fill="#005f73"/>
<circle cx="348.93" cy="193.53" r="2.5" fill="#005f73"/>
<circle cx="360.36" cy="169.44" r="2.5" fill="#005f73"/>
<circle cx="371.80" cy="193.53" r="2.5" fill="#005f73"/>
<circle cx="383.23" cy="173.66" r="2.5" fill="#005f73"/>
<circle cx="394.66" cy="193.53" r="2.5" fill="#005f73"/>
<circle cx="406.09" cy="179.68" r="2.5" fill="#005f73"/>
<circle cx="417.52" cy="193.53" r="2.5" fill="#005f73"/>
<circle cx="428.95" cy="182.69" r="2.5" fill="#005f73"/>
<circle cx="440.39" cy="193.53" r="2.5" fill="#005f73"/>
<circle cx="451.82" cy="182.69" r="2.5" fill="#005f73"/>
<circle cx="463.25" cy="193.53" r="2.5" fill="#005f73"/>
<circle cx="474.68" cy="182.69" r="2.5" fill="#005f73"/>
<circle cx="486.11" cy="193.53" r="2.5" fill="#005f73"/>
<circle cx="497.55" cy="185.10" r="2.5" fill="#005f73"/>
<circle cx="508.98" cy="193.53" r="2.5" fill="#005f73"/>
<circle cx="520.41" cy="189.91" r="2.5" fill="#005f73"/>
<circle cx="531.84" cy="193.53" r="2.5" fill="#005f73"/>
<circle cx="543.27" cy="192.32" r="2.5" fill="#005f73"/>
<circle cx="554.70" cy="193.53" r="2.5" fill="#005f73"/>
<circle cx="566.14" cy="191.72" r="2.5" fill="#005f73"/>
<circle cx="577.57" cy="193.53" r="2.5" fill="#005f73"/>
<circle cx="589.00" cy="190.52" r="2.5" fill="#005f73"/>
<circle cx="600.43" cy="193.53" r="2.5" fill="#005f73"/>
<circle cx="611.86" cy="189.31" r="2.5" fill="#005f73"/>
<circle cx="623.30" cy="193.53" r="2.5" fill="#005f73"/>
<circle cx="634.73" cy="188.11" r="2.5" fill="#005f73"/>
<circle cx="646.16" cy="193.53" r="2.5" fill="#005f73"/>
<circle cx="657.59" cy="189.91" r="2.5" fill="#005f73"/>
<circle cx="669.02" cy="193.53" r="2.5" fill="#005f73"/>
<circle cx="680.45" cy="194.13" r="2.5" fill="#005f73"/>
<circle cx="691.89" cy="193.53" r="2.5" fill="#005f73"/>
<circle cx="703.32" cy="195.93" r="2.5" fill="#005f73"/>
<circle cx="714.75" cy="193.53" r="2.5" fill="#005f73"/>
<circle cx="726.18" cy="194.73" r="2.5" fill="#005f73"/>
<circle cx="737.61" cy="193.53" r="2.5" fill="#005f73"/>
<circle cx="749.05" cy="193.53" r="2.5" fill="#005f73"/>
<circle cx="760.48" cy="193.53" r="2.5" fill="#005f73"/>
<circle cx="771.91" cy="191.72" r="2.5" fill="#005f73"/>
<circle cx="783.34" cy="193.53" r="2.5" fill="#005f73"/>
<circle cx="794.77" cy="193.53" r="2.5" fill="#005f73"/>
<circle cx="806.20" cy="193.53" r="2.5" fill="#005f73"/>
<circle cx="817.64" cy="197.74" r="2.5" fill="#005f73"/>
<circle cx="829.07" cy="193.53" r="2.5" fill="#005f73"/>
<circle cx="840.50" cy="199.55" r="2.5" fill="#005f73"/>
<circle cx="851.93" cy="193.53" r="2.5" fill="#005f73"/>
<circle cx="863.36" cy="197.74" r="2.5" fill="#005f73"/>
<circle cx="874.80" cy="193.53" r="2.5" fill="#005f73"/>
<circle cx="886.23" cy="195.93" r="2.5" fill="#005f73"/>
<circle cx="897.66" cy="193.53" r="2.5" fill="#005f73"/>
<circle cx="909.09" cy="194.73" r="2.5" fill="#005f73"/>
<circle cx="920.52" cy="193.53" r="2.5" fill="#005f73"/>
<circle cx="931.95" cy="192.92" r="2.5" fill="#005f73"/>
<circle cx="943.39" cy="193.53" r="2.5" fill="#005f73"/>
<circle cx="954.82" cy="191.72" r="2.5" fill="#005f73"/>
<circle cx="966.25" cy="193.53" r="2.5" fill="#005f73"/>
<circle cx="977.68" cy="192.92" r="2.5" fill="#005f73"/>
<circle cx="989.11" cy="193.53" r="2.5" fill="#005f73"/>
<circle cx="1000.55" cy="197.14" r="2.5" fill="#005f73"/>
<circle cx="1011.98" cy="193.53" r="2.5" fill="#005f73"/>
<circle cx="1023.41" cy="198.94" r="2.5" fill="#005f73"/>
<circle cx="1034.84" cy="193.53" r="2.5" fill="#005f73"/>
<circle cx="1046.27" cy="197.14" r="2.5" fill="#005f73"/>
<circle cx="1057.70" cy="193.53" r="2.5" fill="#005f73"/>
<circle cx="1069.14" cy="195.33" r="2.5" fill="#005f73"/>
<circle cx="1080.57" cy="193.53" r="2.5" fill="#005f73"/>
<circle cx="1092.00" cy="194.13" r="2.5" fill="#005f73"/>
<polyline fill="none" stroke="#ae2012" stroke-width="1.7" stroke-linejoin="round" stroke-linecap="round" points="86.00,193.53 97.43,182.09 108.86,193.53 120.30,277.82 131.73,193.53 143.16,280.83 154.59,193.53 166.02,276.61 177.45,193.53 188.89,265.78 200.32,193.53 211.75,256.74 223.18,193.53 234.61,247.71 246.05,193.53 257.48,240.49 268.91,193.53 280.34,233.26 291.77,193.53 303.20,226.64 314.64,193.53 326.07,221.22 337.50,193.53 348.93,215.80 360.36,193.53 371.80,210.38 383.23,193.53 394.66,211.59 406.09,193.53 417.52,211.59 428.95,193.53 440.39,207.37 451.82,193.53 463.25,203.76 474.68,193.53 486.11,200.75 497.55,193.53 508.98,203.76 520.41,193.53 531.84,206.77 543.27,193.53 554.70,204.36 566.14,193.53 577.57,201.35 589.00,193.53 600.43,198.94 611.86,193.53 623.30,196.54 634.73,193.53 646.16,194.13 657.59,193.53 669.02,197.74 680.45,193.53 691.89,201.96 703.32,193.53 714.75,199.55 726.18,193.53 737.61,197.74 749.05,193.53 760.48,195.93 771.91,193.53 783.34,194.13 794.77,193.53 806.20,198.34 817.64,193.53 829.07,201.96 840.50,193.53 851.93,200.15 863.36,193.53 874.80,198.34 886.23,193.53 897.66,196.54 909.09,193.53 920.52,195.33 931.95,193.53 943.39,193.53 954.82,193.53 966.25,191.72 977.68,193.53 989.11,195.93 1000.55,193.53 1011.98,200.15 1023.41,193.53 1034.84,198.34 1046.27,193.53 1057.70,196.54 1069.14,193.53 1080.57,195.33 1092.00,193.53"/>
<circle cx="86.00" cy="193.53" r="2.5" fill="#ae2012"/>
<circle cx="97.43" cy="182.09" r="2.5" fill="#ae2012"/>
<circle cx="108.86" cy="193.53" r="2.5" fill="#ae2012"/>
<circle cx="120.30" cy="277.82" r="2.5" fill="#ae2012"/>
<circle cx="131.73" cy="193.53" r="2.5" fill="#ae2012"/>
<circle cx="143.16" cy="280.83" r="2.5" fill="#ae2012"/>
<circle cx="154.59" cy="193.53" r="2.5" fill="#ae2012"/>
<circle cx="166.02" cy="276.61" r="2.5" fill="#ae2012"/>
<circle cx="177.45" cy="193.53" r="2.5" fill="#ae2012"/>
<circle cx="188.89" cy="265.78" r="2.5" fill="#ae2012"/>
<circle cx="200.32" cy="193.53" r="2.5" fill="#ae2012"/>
<circle cx="211.75" cy="256.74" r="2.5" fill="#ae2012"/>
<circle cx="223.18" cy="193.53" r="2.5" fill="#ae2012"/>
<circle cx="234.61" cy="247.71" r="2.5" fill="#ae2012"/>
<circle cx="246.05" cy="193.53" r="2.5" fill="#ae2012"/>
<circle cx="257.48" cy="240.49" r="2.5" fill="#ae2012"/>
<circle cx="268.91" cy="193.53" r="2.5" fill="#ae2012"/>
<circle cx="280.34" cy="233.26" r="2.5" fill="#ae2012"/>
<circle cx="291.77" cy="193.53" r="2.5" fill="#ae2012"/>
<circle cx="303.20" cy="226.64" r="2.5" fill="#ae2012"/>
<circle cx="314.64" cy="193.53" r="2.5" fill="#ae2012"/>
<circle cx="326.07" cy="221.22" r="2.5" fill="#ae2012"/>
<circle cx="337.50" cy="193.53" r="2.5" fill="#ae2012"/>
<circle cx="348.93" cy="215.80" r="2.5" fill="#ae2012"/>
<circle cx="360.36" cy="193.53" r="2.5" fill="#ae2012"/>
<circle cx="371.80" cy="210.38" r="2.5" fill="#ae2012"/>
<circle cx="383.23" cy="193.53" r="2.5" fill="#ae2012"/>
<circle cx="394.66" cy="211.59" r="2.5" fill="#ae2012"/>
<circle cx="406.09" cy="193.53" r="2.5" fill="#ae2012"/>
<circle cx="417.52" cy="211.59" r="2.5" fill="#ae2012"/>
<circle cx="428.95" cy="193.53" r="2.5" fill="#ae2012"/>
<circle cx="440.39" cy="207.37" r="2.5" fill="#ae2012"/>
<circle cx="451.82" cy="193.53" r="2.5" fill="#ae2012"/>
<circle cx="463.25" cy="203.76" r="2.5" fill="#ae2012"/>
<circle cx="474.68" cy="193.53" r="2.5" fill="#ae2012"/>
<circle cx="486.11" cy="200.75" r="2.5" fill="#ae2012"/>
<circle cx="497.55" cy="193.53" r="2.5" fill="#ae2012"/>
<circle cx="508.98" cy="203.76" r="2.5" fill="#ae2012"/>
<circle cx="520.41" cy="193.53" r="2.5" fill="#ae2012"/>
<circle cx="531.84" cy="206.77" r="2.5" fill="#ae2012"/>
<circle cx="543.27" cy="193.53" r="2.5" fill="#ae2012"/>
<circle cx="554.70" cy="204.36" r="2.5" fill="#ae2012"/>
<circle cx="566.14" cy="193.53" r="2.5" fill="#ae2012"/>
<circle cx="577.57" cy="201.35" r="2.5" fill="#ae2012"/>
<circle cx="589.00" cy="193.53" r="2.5" fill="#ae2012"/>
<circle cx="600.43" cy="198.94" r="2.5" fill="#ae2012"/>
<circle cx="611.86" cy="193.53" r="2.5" fill="#ae2012"/>
<circle cx="623.30" cy="196.54" r="2.5" fill="#ae2012"/>
<circle cx="634.73" cy="193.53" r="2.5" fill="#ae2012"/>
<circle cx="646.16" cy="194.13" r="2.5" fill="#ae2012"/>
<circle cx="657.59" cy="193.53" r="2.5" fill="#ae2012"/>
<circle cx="669.02" cy="197.74" r="2.5" fill="#ae2012"/>
<circle cx="680.45" cy="193.53" r="2.5" fill="#ae2012"/>
<circle cx="691.89" cy="201.96" r="2.5" fill="#ae2012"/>
<circle cx="703.32" cy="193.53" r="2.5" fill="#ae2012"/>
<circle cx="714.75" cy="199.55" r="2.5" fill="#ae2012"/>
<circle cx="726.18" cy="193.53" r="2.5" fill="#ae2012"/>
<circle cx="737.61" cy="197.74" r="2.5" fill="#ae2012"/>
<circle cx="749.05" cy="193.53" r="2.5" fill="#ae2012"/>
<circle cx="760.48" cy="195.93" r="2.5" fill="#ae2012"/>
<circle cx="771.91" cy="193.53" r="2.5" fill="#ae2012"/>
<circle cx="783.34" cy="194.13" r="2.5" fill="#ae2012"/>
<circle cx="794.77" cy="193.53" r="2.5" fill="#ae2012"/>
<circle cx="806.20" cy="198.34" r="2.5" fill="#ae2012"/>
<circle cx="817.64" cy="193.53" r="2.5" fill="#ae2012"/>
<circle cx="829.07" cy="201.96" r="2.5" fill="#ae2012"/>
<circle cx="840.50" cy="193.53" r="2.5" fill="#ae2012"/>
<circle cx="851.93" cy="200.15" r="2.5" fill="#ae2012"/>
<circle cx="863.36" cy="193.53" r="2.5" fill="#ae2012"/>
<circle cx="874.80" cy="198.34" r="2.5" fill="#ae2012"/>
<circle cx="886.23" cy="193.53" r="2.5" fill="#ae2012"/>
<circle cx="897.66" cy="196.54" r="2.5" fill="#ae2012"/>
<circle cx="909.09" cy="193.53" r="2.5" fill="#ae2012"/>
<circle cx="920.52" cy="195.33" r="2.5" fill="#ae2012"/>
<circle cx="931.95" cy="193.53" r="2.5" fill="#ae2012"/>
<circle cx="943.39" cy="193.53" r="2.5" fill="#ae2012"/>
<circle cx="954.82" cy="193.53" r="2.5" fill="#ae2012"/>
<circle cx="966.25" cy="191.72" r="2.5" fill="#ae2012"/>
<circle cx="977.68" cy="193.53" r="2.5" fill="#ae2012"/>
<circle cx="989.11" cy="195.93" r="2.5" fill="#ae2012"/>
<circle cx="1000.55" cy="193.53" r="2.5" fill="#ae2012"/>
<circle cx="1011.98" cy="200.15" r="2.5" fill="#ae2012"/>
<circle cx="1023.41" cy="193.53" r="2.5" fill="#ae2012"/>
<circle cx="1034.84" cy="198.34" r="2.5" fill="#ae2012"/>
<circle cx="1046.27" cy="193.53" r="2.5" fill="#ae2012"/>
<circle cx="1057.70" cy="196.54" r="2.5" fill="#ae2012"/>
<circle cx="1069.14" cy="193.53" r="2.5" fill="#ae2012"/>
<circle cx="1080.57" cy="195.33" r="2.5" fill="#ae2012"/>
<circle cx="1092.00" cy="193.53" r="2.5" fill="#ae2012"/>
<line x1="94" y1="94" x2="118" y2="94" stroke="#005f73" stroke-width="3"/>
<text x="125" y="98" font-family="Arial, sans-serif" font-size="12" fill="#374151">CP1_u12</text>
<line x1="234" y1="94" x2="258" y2="94" stroke="#ae2012" stroke-width="3"/>
<text x="265" y="98" font-family="Arial, sans-serif" font-size="12" fill="#374151">CP2_u12</text>
<text x="86" y="337" font-family="Arial, sans-serif" font-size="15" font-weight="700" fill="#202124">Signed hold-code difference around zero</text>
<rect x="86" y="351" width="1006" height="220" fill="#ffffff" stroke="#dadce0" stroke-width="1"/>
<line x1="86" y1="571.00" x2="1092" y2="571.00" stroke="#eceff1" stroke-width="1"/>
<text x="76" y="575.00" font-family="Arial, sans-serif" font-size="11" text-anchor="end" fill="#6b7280">-185</text>
<line x1="86" y1="516.00" x2="1092" y2="516.00" stroke="#eceff1" stroke-width="1"/>
<text x="76" y="520.00" font-family="Arial, sans-serif" font-size="11" text-anchor="end" fill="#6b7280">-130</text>
<line x1="86" y1="461.00" x2="1092" y2="461.00" stroke="#eceff1" stroke-width="1"/>
<text x="76" y="465.00" font-family="Arial, sans-serif" font-size="11" text-anchor="end" fill="#6b7280">-75.5</text>
<line x1="86" y1="406.00" x2="1092" y2="406.00" stroke="#eceff1" stroke-width="1"/>
<text x="76" y="410.00" font-family="Arial, sans-serif" font-size="11" text-anchor="end" fill="#6b7280">-20.7</text>
<line x1="86" y1="351.00" x2="1092" y2="351.00" stroke="#eceff1" stroke-width="1"/>
<text x="76" y="355.00" font-family="Arial, sans-serif" font-size="11" text-anchor="end" fill="#6b7280">34.1</text>
<line x1="86.00" y1="351" x2="86.00" y2="571" stroke="#f1f3f4" stroke-width="1"/>
<text x="86.00" y="592" font-family="Arial, sans-serif" font-size="11" text-anchor="middle" fill="#6b7280">0.0</text>
<line x1="337.50" y1="351" x2="337.50" y2="571" stroke="#f1f3f4" stroke-width="1"/>
<text x="337.50" y="592" font-family="Arial, sans-serif" font-size="11" text-anchor="middle" fill="#6b7280">22.0</text>
<line x1="589.00" y1="351" x2="589.00" y2="571" stroke="#f1f3f4" stroke-width="1"/>
<text x="589.00" y="592" font-family="Arial, sans-serif" font-size="11" text-anchor="middle" fill="#6b7280">44.0</text>
<line x1="840.50" y1="351" x2="840.50" y2="571" stroke="#f1f3f4" stroke-width="1"/>
<text x="840.50" y="592" font-family="Arial, sans-serif" font-size="11" text-anchor="middle" fill="#6b7280">66.0</text>
<line x1="1092.00" y1="351" x2="1092.00" y2="571" stroke="#f1f3f4" stroke-width="1"/>
<text x="1092.00" y="592" font-family="Arial, sans-serif" font-size="11" text-anchor="middle" fill="#6b7280">88.0</text>
<line x1="86" y1="385.24" x2="1092" y2="385.24" stroke="#9aa0a6" stroke-width="1.2" stroke-dasharray="5,5"/>
<text x="26" y="461.00" transform="rotate(-90 26,461.00)" font-family="Arial, sans-serif" font-size="12" text-anchor="middle" fill="#5f6368">signed code</text>
<polyline fill="none" stroke="#0a9396" stroke-width="1.7" stroke-linejoin="round" stroke-linecap="round" points="86.00,387.25 97.43,366.17 108.86,555.83 120.30,525.72 131.73,535.76 143.16,530.74 154.59,505.65 166.02,523.72 177.45,484.58 188.89,505.65 200.32,470.53 211.75,490.60 223.18,459.49 234.61,475.55 246.05,449.46 257.48,463.51 268.91,442.44 280.34,451.47 291.77,435.41 303.20,440.43 314.64,431.40 326.07,431.40 337.50,427.38 348.93,422.37 360.36,425.38 371.80,413.34 383.23,418.35 394.66,415.34 406.09,408.32 417.52,415.34 428.95,403.30 440.39,408.32 451.82,403.30 463.25,402.30 474.68,403.30 486.11,397.28 497.55,399.29 508.98,402.30 520.41,391.26 531.84,407.31 543.27,387.25 554.70,403.30 566.14,388.25 577.57,398.28 589.00,390.26 600.43,394.27 611.86,392.26 623.30,390.26 634.73,394.27 646.16,386.24 657.59,391.26 669.02,392.26 680.45,384.23 691.89,399.29 703.32,381.22 714.75,395.27 726.18,383.23 737.61,392.26 749.05,385.24 760.48,389.25 771.91,388.25 783.34,386.24 794.77,385.24 806.20,393.27 817.64,378.21 829.07,399.29 840.50,375.20 851.93,396.28 863.36,378.21 874.80,393.27 886.23,381.22 897.66,390.26 909.09,383.23 920.52,388.25 931.95,386.24 943.39,385.24 954.82,388.25 966.25,382.23 977.68,386.24 989.11,389.25 1000.55,379.22 1011.98,396.28 1023.41,376.21 1034.84,393.27 1046.27,379.22 1057.70,390.26 1069.14,382.23 1080.57,388.25 1092.00,384.23"/>
<circle cx="86.00" cy="387.25" r="2.5" fill="#0a9396"/>
<circle cx="97.43" cy="366.17" r="2.5" fill="#0a9396"/>
<circle cx="108.86" cy="555.83" r="2.5" fill="#0a9396"/>
<circle cx="120.30" cy="525.72" r="2.5" fill="#0a9396"/>
<circle cx="131.73" cy="535.76" r="2.5" fill="#0a9396"/>
<circle cx="143.16" cy="530.74" r="2.5" fill="#0a9396"/>
<circle cx="154.59" cy="505.65" r="2.5" fill="#0a9396"/>
<circle cx="166.02" cy="523.72" r="2.5" fill="#0a9396"/>
<circle cx="177.45" cy="484.58" r="2.5" fill="#0a9396"/>
<circle cx="188.89" cy="505.65" r="2.5" fill="#0a9396"/>
<circle cx="200.32" cy="470.53" r="2.5" fill="#0a9396"/>
<circle cx="211.75" cy="490.60" r="2.5" fill="#0a9396"/>
<circle cx="223.18" cy="459.49" r="2.5" fill="#0a9396"/>
<circle cx="234.61" cy="475.55" r="2.5" fill="#0a9396"/>
<circle cx="246.05" cy="449.46" r="2.5" fill="#0a9396"/>
<circle cx="257.48" cy="463.51" r="2.5" fill="#0a9396"/>
<circle cx="268.91" cy="442.44" r="2.5" fill="#0a9396"/>
<circle cx="280.34" cy="451.47" r="2.5" fill="#0a9396"/>
<circle cx="291.77" cy="435.41" r="2.5" fill="#0a9396"/>
<circle cx="303.20" cy="440.43" r="2.5" fill="#0a9396"/>
<circle cx="314.64" cy="431.40" r="2.5" fill="#0a9396"/>
<circle cx="326.07" cy="431.40" r="2.5" fill="#0a9396"/>
<circle cx="337.50" cy="427.38" r="2.5" fill="#0a9396"/>
<circle cx="348.93" cy="422.37" r="2.5" fill="#0a9396"/>
<circle cx="360.36" cy="425.38" r="2.5" fill="#0a9396"/>
<circle cx="371.80" cy="413.34" r="2.5" fill="#0a9396"/>
<circle cx="383.23" cy="418.35" r="2.5" fill="#0a9396"/>
<circle cx="394.66" cy="415.34" r="2.5" fill="#0a9396"/>
<circle cx="406.09" cy="408.32" r="2.5" fill="#0a9396"/>
<circle cx="417.52" cy="415.34" r="2.5" fill="#0a9396"/>
<circle cx="428.95" cy="403.30" r="2.5" fill="#0a9396"/>
<circle cx="440.39" cy="408.32" r="2.5" fill="#0a9396"/>
<circle cx="451.82" cy="403.30" r="2.5" fill="#0a9396"/>
<circle cx="463.25" cy="402.30" r="2.5" fill="#0a9396"/>
<circle cx="474.68" cy="403.30" r="2.5" fill="#0a9396"/>
<circle cx="486.11" cy="397.28" r="2.5" fill="#0a9396"/>
<circle cx="497.55" cy="399.29" r="2.5" fill="#0a9396"/>
<circle cx="508.98" cy="402.30" r="2.5" fill="#0a9396"/>
<circle cx="520.41" cy="391.26" r="2.5" fill="#0a9396"/>
<circle cx="531.84" cy="407.31" r="2.5" fill="#0a9396"/>
<circle cx="543.27" cy="387.25" r="2.5" fill="#0a9396"/>
<circle cx="554.70" cy="403.30" r="2.5" fill="#0a9396"/>
<circle cx="566.14" cy="388.25" r="2.5" fill="#0a9396"/>
<circle cx="577.57" cy="398.28" r="2.5" fill="#0a9396"/>
<circle cx="589.00" cy="390.26" r="2.5" fill="#0a9396"/>
<circle cx="600.43" cy="394.27" r="2.5" fill="#0a9396"/>
<circle cx="611.86" cy="392.26" r="2.5" fill="#0a9396"/>
<circle cx="623.30" cy="390.26" r="2.5" fill="#0a9396"/>
<circle cx="634.73" cy="394.27" r="2.5" fill="#0a9396"/>
<circle cx="646.16" cy="386.24" r="2.5" fill="#0a9396"/>
<circle cx="657.59" cy="391.26" r="2.5" fill="#0a9396"/>
<circle cx="669.02" cy="392.26" r="2.5" fill="#0a9396"/>
<circle cx="680.45" cy="384.23" r="2.5" fill="#0a9396"/>
<circle cx="691.89" cy="399.29" r="2.5" fill="#0a9396"/>
<circle cx="703.32" cy="381.22" r="2.5" fill="#0a9396"/>
<circle cx="714.75" cy="395.27" r="2.5" fill="#0a9396"/>
<circle cx="726.18" cy="383.23" r="2.5" fill="#0a9396"/>
<circle cx="737.61" cy="392.26" r="2.5" fill="#0a9396"/>
<circle cx="749.05" cy="385.24" r="2.5" fill="#0a9396"/>
<circle cx="760.48" cy="389.25" r="2.5" fill="#0a9396"/>
<circle cx="771.91" cy="388.25" r="2.5" fill="#0a9396"/>
<circle cx="783.34" cy="386.24" r="2.5" fill="#0a9396"/>
<circle cx="794.77" cy="385.24" r="2.5" fill="#0a9396"/>
<circle cx="806.20" cy="393.27" r="2.5" fill="#0a9396"/>
<circle cx="817.64" cy="378.21" r="2.5" fill="#0a9396"/>
<circle cx="829.07" cy="399.29" r="2.5" fill="#0a9396"/>
<circle cx="840.50" cy="375.20" r="2.5" fill="#0a9396"/>
<circle cx="851.93" cy="396.28" r="2.5" fill="#0a9396"/>
<circle cx="863.36" cy="378.21" r="2.5" fill="#0a9396"/>
<circle cx="874.80" cy="393.27" r="2.5" fill="#0a9396"/>
<circle cx="886.23" cy="381.22" r="2.5" fill="#0a9396"/>
<circle cx="897.66" cy="390.26" r="2.5" fill="#0a9396"/>
<circle cx="909.09" cy="383.23" r="2.5" fill="#0a9396"/>
<circle cx="920.52" cy="388.25" r="2.5" fill="#0a9396"/>
<circle cx="931.95" cy="386.24" r="2.5" fill="#0a9396"/>
<circle cx="943.39" cy="385.24" r="2.5" fill="#0a9396"/>
<circle cx="954.82" cy="388.25" r="2.5" fill="#0a9396"/>
<circle cx="966.25" cy="382.23" r="2.5" fill="#0a9396"/>
<circle cx="977.68" cy="386.24" r="2.5" fill="#0a9396"/>
<circle cx="989.11" cy="389.25" r="2.5" fill="#0a9396"/>
<circle cx="1000.55" cy="379.22" r="2.5" fill="#0a9396"/>
<circle cx="1011.98" cy="396.28" r="2.5" fill="#0a9396"/>
<circle cx="1023.41" cy="376.21" r="2.5" fill="#0a9396"/>
<circle cx="1034.84" cy="393.27" r="2.5" fill="#0a9396"/>
<circle cx="1046.27" cy="379.22" r="2.5" fill="#0a9396"/>
<circle cx="1057.70" cy="390.26" r="2.5" fill="#0a9396"/>
<circle cx="1069.14" cy="382.23" r="2.5" fill="#0a9396"/>
<circle cx="1080.57" cy="388.25" r="2.5" fill="#0a9396"/>
<circle cx="1092.00" cy="384.23" r="2.5" fill="#0a9396"/>
<line x1="94" y1="369" x2="118" y2="369" stroke="#0a9396" stroke-width="3"/>
<text x="125" y="373" font-family="Arial, sans-serif" font-size="12" fill="#374151">CP2-CP1_sdiff</text>
<text x="86" y="612" font-family="Arial, sans-serif" font-size="15" font-weight="700" fill="#202124">Held analog state and oref</text>
<rect x="86" y="626" width="1006" height="220" fill="#ffffff" stroke="#dadce0" stroke-width="1"/>
<line x1="86" y1="846.00" x2="1092" y2="846.00" stroke="#eceff1" stroke-width="1"/>
<text x="76" y="850.00" font-family="Arial, sans-serif" font-size="11" text-anchor="end" fill="#6b7280">0.189</text>
<line x1="86" y1="791.00" x2="1092" y2="791.00" stroke="#eceff1" stroke-width="1"/>
<text x="76" y="795.00" font-family="Arial, sans-serif" font-size="11" text-anchor="end" fill="#6b7280">0.329</text>
<line x1="86" y1="736.00" x2="1092" y2="736.00" stroke="#eceff1" stroke-width="1"/>
<text x="76" y="740.00" font-family="Arial, sans-serif" font-size="11" text-anchor="end" fill="#6b7280">0.469</text>
<line x1="86" y1="681.00" x2="1092" y2="681.00" stroke="#eceff1" stroke-width="1"/>
<text x="76" y="685.00" font-family="Arial, sans-serif" font-size="11" text-anchor="end" fill="#6b7280">0.609</text>
<line x1="86" y1="626.00" x2="1092" y2="626.00" stroke="#eceff1" stroke-width="1"/>
<text x="76" y="630.00" font-family="Arial, sans-serif" font-size="11" text-anchor="end" fill="#6b7280">0.75</text>
<line x1="86.00" y1="626" x2="86.00" y2="846" stroke="#f1f3f4" stroke-width="1"/>
<text x="86.00" y="867" font-family="Arial, sans-serif" font-size="11" text-anchor="middle" fill="#6b7280">0.0</text>
<line x1="337.50" y1="626" x2="337.50" y2="846" stroke="#f1f3f4" stroke-width="1"/>
<text x="337.50" y="867" font-family="Arial, sans-serif" font-size="11" text-anchor="middle" fill="#6b7280">22.0</text>
<line x1="589.00" y1="626" x2="589.00" y2="846" stroke="#f1f3f4" stroke-width="1"/>
<text x="589.00" y="867" font-family="Arial, sans-serif" font-size="11" text-anchor="middle" fill="#6b7280">44.0</text>
<line x1="840.50" y1="626" x2="840.50" y2="846" stroke="#f1f3f4" stroke-width="1"/>
<text x="840.50" y="867" font-family="Arial, sans-serif" font-size="11" text-anchor="middle" fill="#6b7280">66.0</text>
<line x1="1092.00" y1="626" x2="1092.00" y2="846" stroke="#f1f3f4" stroke-width="1"/>
<text x="1092.00" y="867" font-family="Arial, sans-serif" font-size="11" text-anchor="middle" fill="#6b7280">88.0</text>
<text x="26" y="736.00" transform="rotate(-90 26,736.00)" font-family="Arial, sans-serif" font-size="12" text-anchor="middle" fill="#5f6368">V</text>
<polyline fill="none" stroke="#005f73" stroke-width="1.7" stroke-linejoin="round" stroke-linecap="round" points="86.00,667.99 97.43,809.10 108.86,646.93 120.30,799.90 131.73,655.47 143.16,801.05 154.59,655.79 166.02,802.87 177.45,655.51 188.89,803.90 200.32,654.48 211.75,804.91 223.18,653.55 234.61,805.46 246.05,652.45 257.48,806.12 268.91,651.74 280.34,806.25 291.77,651.15 303.20,806.82 314.64,650.18 326.07,806.93 337.50,649.53 348.93,807.32 360.36,648.83 371.80,807.40 383.23,648.39 394.66,807.82 406.09,649.00 417.52,808.55 428.95,649.10 440.39,808.62 451.82,648.47 463.25,808.75 474.68,648.17 486.11,808.36 497.55,647.76 508.98,808.70 520.41,648.22 531.84,809.40 543.27,648.47 554.70,809.57 566.14,648.22 577.57,809.37 589.00,647.84 600.43,809.53 611.86,647.56 623.30,809.08 634.73,647.01 646.16,808.84 657.59,646.92 669.02,809.34 680.45,647.66 691.89,809.87 703.32,647.98 714.75,810.04 726.18,647.60 737.61,810.03 749.05,647.70 760.48,809.46 771.91,647.47 783.34,809.57 794.77,647.16 806.20,809.75 817.64,647.46 829.07,810.11 840.50,648.05 851.93,810.40 863.36,648.12 874.80,810.26 886.23,647.54 897.66,809.80 909.09,647.27 920.52,809.94 931.95,647.32 943.39,809.75 954.82,646.76 966.25,809.25 977.68,646.72 989.11,809.51 1000.55,647.42 1011.98,810.33 1023.41,648.07 1034.84,810.47 1046.27,647.90 1057.70,810.08 1069.14,647.60 1080.57,809.74 1092.00,647.25"/>
<circle cx="86.00" cy="667.99" r="2.5" fill="#005f73"/>
<circle cx="97.43" cy="809.10" r="2.5" fill="#005f73"/>
<circle cx="108.86" cy="646.93" r="2.5" fill="#005f73"/>
<circle cx="120.30" cy="799.90" r="2.5" fill="#005f73"/>
<circle cx="131.73" cy="655.47" r="2.5" fill="#005f73"/>
<circle cx="143.16" cy="801.05" r="2.5" fill="#005f73"/>
<circle cx="154.59" cy="655.79" r="2.5" fill="#005f73"/>
<circle cx="166.02" cy="802.87" r="2.5" fill="#005f73"/>
<circle cx="177.45" cy="655.51" r="2.5" fill="#005f73"/>
<circle cx="188.89" cy="803.90" r="2.5" fill="#005f73"/>
<circle cx="200.32" cy="654.48" r="2.5" fill="#005f73"/>
<circle cx="211.75" cy="804.91" r="2.5" fill="#005f73"/>
<circle cx="223.18" cy="653.55" r="2.5" fill="#005f73"/>
<circle cx="234.61" cy="805.46" r="2.5" fill="#005f73"/>
<circle cx="246.05" cy="652.45" r="2.5" fill="#005f73"/>
<circle cx="257.48" cy="806.12" r="2.5" fill="#005f73"/>
<circle cx="268.91" cy="651.74" r="2.5" fill="#005f73"/>
<circle cx="280.34" cy="806.25" r="2.5" fill="#005f73"/>
<circle cx="291.77" cy="651.15" r="2.5" fill="#005f73"/>
<circle cx="303.20" cy="806.82" r="2.5" fill="#005f73"/>
<circle cx="314.64" cy="650.18" r="2.5" fill="#005f73"/>
<circle cx="326.07" cy="806.93" r="2.5" fill="#005f73"/>
<circle cx="337.50" cy="649.53" r="2.5" fill="#005f73"/>
<circle cx="348.93" cy="807.32" r="2.5" fill="#005f73"/>
<circle cx="360.36" cy="648.83" r="2.5" fill="#005f73"/>
<circle cx="371.80" cy="807.40" r="2.5" fill="#005f73"/>
<circle cx="383.23" cy="648.39" r="2.5" fill="#005f73"/>
<circle cx="394.66" cy="807.82" r="2.5" fill="#005f73"/>
<circle cx="406.09" cy="649.00" r="2.5" fill="#005f73"/>
<circle cx="417.52" cy="808.55" r="2.5" fill="#005f73"/>
<circle cx="428.95" cy="649.10" r="2.5" fill="#005f73"/>
<circle cx="440.39" cy="808.62" r="2.5" fill="#005f73"/>
<circle cx="451.82" cy="648.47" r="2.5" fill="#005f73"/>
<circle cx="463.25" cy="808.75" r="2.5" fill="#005f73"/>
<circle cx="474.68" cy="648.17" r="2.5" fill="#005f73"/>
<circle cx="486.11" cy="808.36" r="2.5" fill="#005f73"/>
<circle cx="497.55" cy="647.76" r="2.5" fill="#005f73"/>
<circle cx="508.98" cy="808.70" r="2.5" fill="#005f73"/>
<circle cx="520.41" cy="648.22" r="2.5" fill="#005f73"/>
<circle cx="531.84" cy="809.40" r="2.5" fill="#005f73"/>
<circle cx="543.27" cy="648.47" r="2.5" fill="#005f73"/>
<circle cx="554.70" cy="809.57" r="2.5" fill="#005f73"/>
<circle cx="566.14" cy="648.22" r="2.5" fill="#005f73"/>
<circle cx="577.57" cy="809.37" r="2.5" fill="#005f73"/>
<circle cx="589.00" cy="647.84" r="2.5" fill="#005f73"/>
<circle cx="600.43" cy="809.53" r="2.5" fill="#005f73"/>
<circle cx="611.86" cy="647.56" r="2.5" fill="#005f73"/>
<circle cx="623.30" cy="809.08" r="2.5" fill="#005f73"/>
<circle cx="634.73" cy="647.01" r="2.5" fill="#005f73"/>
<circle cx="646.16" cy="808.84" r="2.5" fill="#005f73"/>
<circle cx="657.59" cy="646.92" r="2.5" fill="#005f73"/>
<circle cx="669.02" cy="809.34" r="2.5" fill="#005f73"/>
<circle cx="680.45" cy="647.66" r="2.5" fill="#005f73"/>
<circle cx="691.89" cy="809.87" r="2.5" fill="#005f73"/>
<circle cx="703.32" cy="647.98" r="2.5" fill="#005f73"/>
<circle cx="714.75" cy="810.04" r="2.5" fill="#005f73"/>
<circle cx="726.18" cy="647.60" r="2.5" fill="#005f73"/>
<circle cx="737.61" cy="810.03" r="2.5" fill="#005f73"/>
<circle cx="749.05" cy="647.70" r="2.5" fill="#005f73"/>
<circle cx="760.48" cy="809.46" r="2.5" fill="#005f73"/>
<circle cx="771.91" cy="647.47" r="2.5" fill="#005f73"/>
<circle cx="783.34" cy="809.57" r="2.5" fill="#005f73"/>
<circle cx="794.77" cy="647.16" r="2.5" fill="#005f73"/>
<circle cx="806.20" cy="809.75" r="2.5" fill="#005f73"/>
<circle cx="817.64" cy="647.46" r="2.5" fill="#005f73"/>
<circle cx="829.07" cy="810.11" r="2.5" fill="#005f73"/>
<circle cx="840.50" cy="648.05" r="2.5" fill="#005f73"/>
<circle cx="851.93" cy="810.40" r="2.5" fill="#005f73"/>
<circle cx="863.36" cy="648.12" r="2.5" fill="#005f73"/>
<circle cx="874.80" cy="810.26" r="2.5" fill="#005f73"/>
<circle cx="886.23" cy="647.54" r="2.5" fill="#005f73"/>
<circle cx="897.66" cy="809.80" r="2.5" fill="#005f73"/>
<circle cx="909.09" cy="647.27" r="2.5" fill="#005f73"/>
<circle cx="920.52" cy="809.94" r="2.5" fill="#005f73"/>
<circle cx="931.95" cy="647.32" r="2.5" fill="#005f73"/>
<circle cx="943.39" cy="809.75" r="2.5" fill="#005f73"/>
<circle cx="954.82" cy="646.76" r="2.5" fill="#005f73"/>
<circle cx="966.25" cy="809.25" r="2.5" fill="#005f73"/>
<circle cx="977.68" cy="646.72" r="2.5" fill="#005f73"/>
<circle cx="989.11" cy="809.51" r="2.5" fill="#005f73"/>
<circle cx="1000.55" cy="647.42" r="2.5" fill="#005f73"/>
<circle cx="1011.98" cy="810.33" r="2.5" fill="#005f73"/>
<circle cx="1023.41" cy="648.07" r="2.5" fill="#005f73"/>
<circle cx="1034.84" cy="810.47" r="2.5" fill="#005f73"/>
<circle cx="1046.27" cy="647.90" r="2.5" fill="#005f73"/>
<circle cx="1057.70" cy="810.08" r="2.5" fill="#005f73"/>
<circle cx="1069.14" cy="647.60" r="2.5" fill="#005f73"/>
<circle cx="1080.57" cy="809.74" r="2.5" fill="#005f73"/>
<circle cx="1092.00" cy="647.25" r="2.5" fill="#005f73"/>
<polyline fill="none" stroke="#ae2012" stroke-width="1.7" stroke-linejoin="round" stroke-linecap="round" points="86.00,830.83 97.43,648.41 108.86,810.97 120.30,653.70 131.73,797.22 143.16,650.89 154.59,796.25 166.02,648.71 177.45,796.47 188.89,647.60 200.32,797.51 211.75,646.62 223.18,798.45 234.61,646.09 246.05,799.56 257.48,645.47 268.91,800.26 280.34,645.36 291.77,800.84 303.20,644.84 314.64,801.80 326.07,644.75 337.50,802.44 348.93,644.40 360.36,803.13 371.80,644.34 383.23,803.55 394.66,643.95 406.09,802.95 417.52,643.21 428.95,802.88 440.39,643.12 451.82,803.52 463.25,643.01 474.68,803.80 486.11,643.42 497.55,804.19 508.98,643.10 520.41,803.74 531.84,642.38 543.27,803.55 554.70,642.18 566.14,803.80 577.57,642.39 589.00,804.17 600.43,642.25 611.86,804.43 623.30,642.71 634.73,804.96 646.16,642.98 657.59,805.02 669.02,642.49 680.45,804.30 691.89,641.80 703.32,804.06 714.75,641.58 726.18,804.45 737.61,641.60 749.05,804.33 760.48,642.31 771.91,804.51 783.34,642.24 794.77,804.80 806.20,642.07 817.64,804.53 829.07,641.56 840.50,804.01 851.93,641.22 863.36,803.95 874.80,641.36 886.23,804.51 897.66,641.82 909.09,804.76 920.52,641.70 931.95,804.69 943.39,642.05 954.82,805.43 966.25,642.55 977.68,805.49 989.11,642.31 1000.55,804.58 1011.98,641.35 1023.41,803.98 1034.84,641.17 1046.27,804.15 1057.70,641.55 1069.14,804.44 1080.57,641.90 1092.00,804.76"/>
<circle cx="86.00" cy="830.83" r="2.5" fill="#ae2012"/>
<circle cx="97.43" cy="648.41" r="2.5" fill="#ae2012"/>
<circle cx="108.86" cy="810.97" r="2.5" fill="#ae2012"/>
<circle cx="120.30" cy="653.70" r="2.5" fill="#ae2012"/>
<circle cx="131.73" cy="797.22" r="2.5" fill="#ae2012"/>
<circle cx="143.16" cy="650.89" r="2.5" fill="#ae2012"/>
<circle cx="154.59" cy="796.25" r="2.5" fill="#ae2012"/>
<circle cx="166.02" cy="648.71" r="2.5" fill="#ae2012"/>
<circle cx="177.45" cy="796.47" r="2.5" fill="#ae2012"/>
<circle cx="188.89" cy="647.60" r="2.5" fill="#ae2012"/>
<circle cx="200.32" cy="797.51" r="2.5" fill="#ae2012"/>
<circle cx="211.75" cy="646.62" r="2.5" fill="#ae2012"/>
<circle cx="223.18" cy="798.45" r="2.5" fill="#ae2012"/>
<circle cx="234.61" cy="646.09" r="2.5" fill="#ae2012"/>
<circle cx="246.05" cy="799.56" r="2.5" fill="#ae2012"/>
<circle cx="257.48" cy="645.47" r="2.5" fill="#ae2012"/>
<circle cx="268.91" cy="800.26" r="2.5" fill="#ae2012"/>
<circle cx="280.34" cy="645.36" r="2.5" fill="#ae2012"/>
<circle cx="291.77" cy="800.84" r="2.5" fill="#ae2012"/>
<circle cx="303.20" cy="644.84" r="2.5" fill="#ae2012"/>
<circle cx="314.64" cy="801.80" r="2.5" fill="#ae2012"/>
<circle cx="326.07" cy="644.75" r="2.5" fill="#ae2012"/>
<circle cx="337.50" cy="802.44" r="2.5" fill="#ae2012"/>
<circle cx="348.93" cy="644.40" r="2.5" fill="#ae2012"/>
<circle cx="360.36" cy="803.13" r="2.5" fill="#ae2012"/>
<circle cx="371.80" cy="644.34" r="2.5" fill="#ae2012"/>
<circle cx="383.23" cy="803.55" r="2.5" fill="#ae2012"/>
<circle cx="394.66" cy="643.95" r="2.5" fill="#ae2012"/>
<circle cx="406.09" cy="802.95" r="2.5" fill="#ae2012"/>
<circle cx="417.52" cy="643.21" r="2.5" fill="#ae2012"/>
<circle cx="428.95" cy="802.88" r="2.5" fill="#ae2012"/>
<circle cx="440.39" cy="643.12" r="2.5" fill="#ae2012"/>
<circle cx="451.82" cy="803.52" r="2.5" fill="#ae2012"/>
<circle cx="463.25" cy="643.01" r="2.5" fill="#ae2012"/>
<circle cx="474.68" cy="803.80" r="2.5" fill="#ae2012"/>
<circle cx="486.11" cy="643.42" r="2.5" fill="#ae2012"/>
<circle cx="497.55" cy="804.19" r="2.5" fill="#ae2012"/>
<circle cx="508.98" cy="643.10" r="2.5" fill="#ae2012"/>
<circle cx="520.41" cy="803.74" r="2.5" fill="#ae2012"/>
<circle cx="531.84" cy="642.38" r="2.5" fill="#ae2012"/>
<circle cx="543.27" cy="803.55" r="2.5" fill="#ae2012"/>
<circle cx="554.70" cy="642.18" r="2.5" fill="#ae2012"/>
<circle cx="566.14" cy="803.80" r="2.5" fill="#ae2012"/>
<circle cx="577.57" cy="642.39" r="2.5" fill="#ae2012"/>
<circle cx="589.00" cy="804.17" r="2.5" fill="#ae2012"/>
<circle cx="600.43" cy="642.25" r="2.5" fill="#ae2012"/>
<circle cx="611.86" cy="804.43" r="2.5" fill="#ae2012"/>
<circle cx="623.30" cy="642.71" r="2.5" fill="#ae2012"/>
<circle cx="634.73" cy="804.96" r="2.5" fill="#ae2012"/>
<circle cx="646.16" cy="642.98" r="2.5" fill="#ae2012"/>
<circle cx="657.59" cy="805.02" r="2.5" fill="#ae2012"/>
<circle cx="669.02" cy="642.49" r="2.5" fill="#ae2012"/>
<circle cx="680.45" cy="804.30" r="2.5" fill="#ae2012"/>
<circle cx="691.89" cy="641.80" r="2.5" fill="#ae2012"/>
<circle cx="703.32" cy="804.06" r="2.5" fill="#ae2012"/>
<circle cx="714.75" cy="641.58" r="2.5" fill="#ae2012"/>
<circle cx="726.18" cy="804.45" r="2.5" fill="#ae2012"/>
<circle cx="737.61" cy="641.60" r="2.5" fill="#ae2012"/>
<circle cx="749.05" cy="804.33" r="2.5" fill="#ae2012"/>
<circle cx="760.48" cy="642.31" r="2.5" fill="#ae2012"/>
<circle cx="771.91" cy="804.51" r="2.5" fill="#ae2012"/>
<circle cx="783.34" cy="642.24" r="2.5" fill="#ae2012"/>
<circle cx="794.77" cy="804.80" r="2.5" fill="#ae2012"/>
<circle cx="806.20" cy="642.07" r="2.5" fill="#ae2012"/>
<circle cx="817.64" cy="804.53" r="2.5" fill="#ae2012"/>
<circle cx="829.07" cy="641.56" r="2.5" fill="#ae2012"/>
<circle cx="840.50" cy="804.01" r="2.5" fill="#ae2012"/>
<circle cx="851.93" cy="641.22" r="2.5" fill="#ae2012"/>
<circle cx="863.36" cy="803.95" r="2.5" fill="#ae2012"/>
<circle cx="874.80" cy="641.36" r="2.5" fill="#ae2012"/>
<circle cx="886.23" cy="804.51" r="2.5" fill="#ae2012"/>
<circle cx="897.66" cy="641.82" r="2.5" fill="#ae2012"/>
<circle cx="909.09" cy="804.76" r="2.5" fill="#ae2012"/>
<circle cx="920.52" cy="641.70" r="2.5" fill="#ae2012"/>
<circle cx="931.95" cy="804.69" r="2.5" fill="#ae2012"/>
<circle cx="943.39" cy="642.05" r="2.5" fill="#ae2012"/>
<circle cx="954.82" cy="805.43" r="2.5" fill="#ae2012"/>
<circle cx="966.25" cy="642.55" r="2.5" fill="#ae2012"/>
<circle cx="977.68" cy="805.49" r="2.5" fill="#ae2012"/>
<circle cx="989.11" cy="642.31" r="2.5" fill="#ae2012"/>
<circle cx="1000.55" cy="804.58" r="2.5" fill="#ae2012"/>
<circle cx="1011.98" cy="641.35" r="2.5" fill="#ae2012"/>
<circle cx="1023.41" cy="803.98" r="2.5" fill="#ae2012"/>
<circle cx="1034.84" cy="641.17" r="2.5" fill="#ae2012"/>
<circle cx="1046.27" cy="804.15" r="2.5" fill="#ae2012"/>
<circle cx="1057.70" cy="641.55" r="2.5" fill="#ae2012"/>
<circle cx="1069.14" cy="804.44" r="2.5" fill="#ae2012"/>
<circle cx="1080.57" cy="641.90" r="2.5" fill="#ae2012"/>
<circle cx="1092.00" cy="804.76" r="2.5" fill="#ae2012"/>
<polyline fill="none" stroke="#0a9396" stroke-width="1.7" stroke-linejoin="round" stroke-linecap="round" points="86.00,723.87 97.43,724.07 108.86,735.06 120.30,712.95 131.73,734.68 143.16,714.62 154.59,733.95 166.02,717.01 177.45,732.86 188.89,718.32 200.32,731.49 211.75,719.49 223.18,730.27 234.61,720.46 246.05,729.15 257.48,721.26 268.91,728.16 280.34,721.91 291.77,727.24 303.20,722.42 314.64,726.39 326.07,722.80 337.50,725.60 348.93,723.10 360.36,724.89 371.80,723.32 383.23,724.66 394.66,724.34 406.09,724.63 417.52,725.25 428.95,724.47 440.39,725.23 451.82,723.94 463.25,725.22 474.68,723.47 486.11,725.19 497.55,723.47 508.98,726.01 520.41,723.94 531.84,726.75 543.27,723.97 554.70,726.60 566.14,723.58 577.57,726.46 589.00,723.21 600.43,726.32 611.86,722.86 623.30,726.17 634.73,722.53 646.16,726.02 657.59,722.66 669.02,726.73 680.45,723.24 691.89,727.37 703.32,723.36 714.75,727.14 726.18,723.07 737.61,726.95 749.05,722.79 760.48,726.75 771.91,722.52 783.34,726.56 794.77,722.69 806.20,727.24 817.64,723.30 829.07,727.86 840.50,723.46 851.93,727.60 863.36,723.19 874.80,727.38 886.23,722.93 897.66,727.16 909.09,722.68 920.52,726.94 931.95,722.43 943.39,726.73 954.82,722.18 966.25,726.53 977.68,722.38 989.11,727.19 1000.55,723.01 1011.98,727.80 1023.41,723.19 1034.84,727.52 1046.27,722.94 1057.70,727.30 1069.14,722.70 1080.57,727.07 1092.00,722.46"/>
<circle cx="86.00" cy="723.87" r="2.5" fill="#0a9396"/>
<circle cx="97.43" cy="724.07" r="2.5" fill="#0a9396"/>
<circle cx="108.86" cy="735.06" r="2.5" fill="#0a9396"/>
<circle cx="120.30" cy="712.95" r="2.5" fill="#0a9396"/>
<circle cx="131.73" cy="734.68" r="2.5" fill="#0a9396"/>
<circle cx="143.16" cy="714.62" r="2.5" fill="#0a9396"/>
<circle cx="154.59" cy="733.95" r="2.5" fill="#0a9396"/>
<circle cx="166.02" cy="717.01" r="2.5" fill="#0a9396"/>
<circle cx="177.45" cy="732.86" r="2.5" fill="#0a9396"/>
<circle cx="188.89" cy="718.32" r="2.5" fill="#0a9396"/>
<circle cx="200.32" cy="731.49" r="2.5" fill="#0a9396"/>
<circle cx="211.75" cy="719.49" r="2.5" fill="#0a9396"/>
<circle cx="223.18" cy="730.27" r="2.5" fill="#0a9396"/>
<circle cx="234.61" cy="720.46" r="2.5" fill="#0a9396"/>
<circle cx="246.05" cy="729.15" r="2.5" fill="#0a9396"/>
<circle cx="257.48" cy="721.26" r="2.5" fill="#0a9396"/>
<circle cx="268.91" cy="728.16" r="2.5" fill="#0a9396"/>
<circle cx="280.34" cy="721.91" r="2.5" fill="#0a9396"/>
<circle cx="291.77" cy="727.24" r="2.5" fill="#0a9396"/>
<circle cx="303.20" cy="722.42" r="2.5" fill="#0a9396"/>
<circle cx="314.64" cy="726.39" r="2.5" fill="#0a9396"/>
<circle cx="326.07" cy="722.80" r="2.5" fill="#0a9396"/>
<circle cx="337.50" cy="725.60" r="2.5" fill="#0a9396"/>
<circle cx="348.93" cy="723.10" r="2.5" fill="#0a9396"/>
<circle cx="360.36" cy="724.89" r="2.5" fill="#0a9396"/>
<circle cx="371.80" cy="723.32" r="2.5" fill="#0a9396"/>
<circle cx="383.23" cy="724.66" r="2.5" fill="#0a9396"/>
<circle cx="394.66" cy="724.34" r="2.5" fill="#0a9396"/>
<circle cx="406.09" cy="724.63" r="2.5" fill="#0a9396"/>
<circle cx="417.52" cy="725.25" r="2.5" fill="#0a9396"/>
<circle cx="428.95" cy="724.47" r="2.5" fill="#0a9396"/>
<circle cx="440.39" cy="725.23" r="2.5" fill="#0a9396"/>
<circle cx="451.82" cy="723.94" r="2.5" fill="#0a9396"/>
<circle cx="463.25" cy="725.22" r="2.5" fill="#0a9396"/>
<circle cx="474.68" cy="723.47" r="2.5" fill="#0a9396"/>
<circle cx="486.11" cy="725.19" r="2.5" fill="#0a9396"/>
<circle cx="497.55" cy="723.47" r="2.5" fill="#0a9396"/>
<circle cx="508.98" cy="726.01" r="2.5" fill="#0a9396"/>
<circle cx="520.41" cy="723.94" r="2.5" fill="#0a9396"/>
<circle cx="531.84" cy="726.75" r="2.5" fill="#0a9396"/>
<circle cx="543.27" cy="723.97" r="2.5" fill="#0a9396"/>
<circle cx="554.70" cy="726.60" r="2.5" fill="#0a9396"/>
<circle cx="566.14" cy="723.58" r="2.5" fill="#0a9396"/>
<circle cx="577.57" cy="726.46" r="2.5" fill="#0a9396"/>
<circle cx="589.00" cy="723.21" r="2.5" fill="#0a9396"/>
<circle cx="600.43" cy="726.32" r="2.5" fill="#0a9396"/>
<circle cx="611.86" cy="722.86" r="2.5" fill="#0a9396"/>
<circle cx="623.30" cy="726.17" r="2.5" fill="#0a9396"/>
<circle cx="634.73" cy="722.53" r="2.5" fill="#0a9396"/>
<circle cx="646.16" cy="726.02" r="2.5" fill="#0a9396"/>
<circle cx="657.59" cy="722.66" r="2.5" fill="#0a9396"/>
<circle cx="669.02" cy="726.73" r="2.5" fill="#0a9396"/>
<circle cx="680.45" cy="723.24" r="2.5" fill="#0a9396"/>
<circle cx="691.89" cy="727.37" r="2.5" fill="#0a9396"/>
<circle cx="703.32" cy="723.36" r="2.5" fill="#0a9396"/>
<circle cx="714.75" cy="727.14" r="2.5" fill="#0a9396"/>
<circle cx="726.18" cy="723.07" r="2.5" fill="#0a9396"/>
<circle cx="737.61" cy="726.95" r="2.5" fill="#0a9396"/>
<circle cx="749.05" cy="722.79" r="2.5" fill="#0a9396"/>
<circle cx="760.48" cy="726.75" r="2.5" fill="#0a9396"/>
<circle cx="771.91" cy="722.52" r="2.5" fill="#0a9396"/>
<circle cx="783.34" cy="726.56" r="2.5" fill="#0a9396"/>
<circle cx="794.77" cy="722.69" r="2.5" fill="#0a9396"/>
<circle cx="806.20" cy="727.24" r="2.5" fill="#0a9396"/>
<circle cx="817.64" cy="723.30" r="2.5" fill="#0a9396"/>
<circle cx="829.07" cy="727.86" r="2.5" fill="#0a9396"/>
<circle cx="840.50" cy="723.46" r="2.5" fill="#0a9396"/>
<circle cx="851.93" cy="727.60" r="2.5" fill="#0a9396"/>
<circle cx="863.36" cy="723.19" r="2.5" fill="#0a9396"/>
<circle cx="874.80" cy="727.38" r="2.5" fill="#0a9396"/>
<circle cx="886.23" cy="722.93" r="2.5" fill="#0a9396"/>
<circle cx="897.66" cy="727.16" r="2.5" fill="#0a9396"/>
<circle cx="909.09" cy="722.68" r="2.5" fill="#0a9396"/>
<circle cx="920.52" cy="726.94" r="2.5" fill="#0a9396"/>
<circle cx="931.95" cy="722.43" r="2.5" fill="#0a9396"/>
<circle cx="943.39" cy="726.73" r="2.5" fill="#0a9396"/>
<circle cx="954.82" cy="722.18" r="2.5" fill="#0a9396"/>
<circle cx="966.25" cy="726.53" r="2.5" fill="#0a9396"/>
<circle cx="977.68" cy="722.38" r="2.5" fill="#0a9396"/>
<circle cx="989.11" cy="727.19" r="2.5" fill="#0a9396"/>
<circle cx="1000.55" cy="723.01" r="2.5" fill="#0a9396"/>
<circle cx="1011.98" cy="727.80" r="2.5" fill="#0a9396"/>
<circle cx="1023.41" cy="723.19" r="2.5" fill="#0a9396"/>
<circle cx="1034.84" cy="727.52" r="2.5" fill="#0a9396"/>
<circle cx="1046.27" cy="722.94" r="2.5" fill="#0a9396"/>
<circle cx="1057.70" cy="727.30" r="2.5" fill="#0a9396"/>
<circle cx="1069.14" cy="722.70" r="2.5" fill="#0a9396"/>
<circle cx="1080.57" cy="727.07" r="2.5" fill="#0a9396"/>
<circle cx="1092.00" cy="722.46" r="2.5" fill="#0a9396"/>
<line x1="94" y1="644" x2="118" y2="644" stroke="#005f73" stroke-width="3"/>
<text x="125" y="648" font-family="Arial, sans-serif" font-size="12" fill="#374151">VRC1</text>
<line x1="216" y1="644" x2="240" y2="644" stroke="#ae2012" stroke-width="3"/>
<text x="247" y="648" font-family="Arial, sans-serif" font-size="12" fill="#374151">VRC2</text>
<line x1="338" y1="644" x2="362" y2="644" stroke="#0a9396" stroke-width="3"/>
<text x="369" y="648" font-family="Arial, sans-serif" font-size="12" fill="#374151">oref</text>
<text x="589.00" y="884" font-family="Arial, sans-serif" font-size="12" text-anchor="middle" fill="#5f6368">DATA_OUT hold index</text>
</svg>