<svg xmlns="http://www.w3.org/2000/svg" width="1120" height="934" viewBox="0 0 1120 934">
<rect width="100%" height="100%" fill="#fbfbf8"/>
<text x="82" y="34" font-family="Arial, sans-serif" font-size="22" font-weight="700" fill="#202124">CP Code Captured at DATA_OUT Hold Edges</text>
<text x="82" y="58" font-family="Arial, sans-serif" font-size="13" fill="#5f6368">source: top/top_run.csv</text>
<text x="82" y="59" font-family="Arial, sans-serif" font-size="15" font-weight="700" fill="#202124">Hold-time CP codes</text>
<rect x="82" y="74" width="1012" height="230" fill="#ffffff" stroke="#dadce0" stroke-width="1"/>
<line x1="82" y1="304.00" x2="1094" y2="304.00" stroke="#eceff1" stroke-width="1"/>
<text x="72" y="308.00" font-family="Arial, sans-serif" font-size="11" text-anchor="end" fill="#6b7280">1.88e+03</text>
<line x1="82" y1="246.50" x2="1094" y2="246.50" stroke="#eceff1" stroke-width="1"/>
<text x="72" y="250.50" font-family="Arial, sans-serif" font-size="11" text-anchor="end" fill="#6b7280">1.97e+03</text>
<line x1="82" y1="189.00" x2="1094" y2="189.00" stroke="#eceff1" stroke-width="1"/>
<text x="72" y="193.00" font-family="Arial, sans-serif" font-size="11" text-anchor="end" fill="#6b7280">2.06e+03</text>
<line x1="82" y1="131.50" x2="1094" y2="131.50" stroke="#eceff1" stroke-width="1"/>
<text x="72" y="135.50" font-family="Arial, sans-serif" font-size="11" text-anchor="end" fill="#6b7280">2.15e+03</text>
<line x1="82" y1="74.00" x2="1094" y2="74.00" stroke="#eceff1" stroke-width="1"/>
<text x="72" y="78.00" font-family="Arial, sans-serif" font-size="11" text-anchor="end" fill="#6b7280">2.24e+03</text>
<line x1="82.00" y1="74" x2="82.00" y2="304" stroke="#f1f3f4" stroke-width="1"/>
<text x="82.00" y="326" font-family="Arial, sans-serif" font-size="11" text-anchor="middle" fill="#6b7280">0.1</text>
<line x1="335.00" y1="74" x2="335.00" y2="304" stroke="#f1f3f4" stroke-width="1"/>
<text x="335.00" y="326" font-family="Arial, sans-serif" font-size="11" text-anchor="middle" fill="#6b7280">50.0</text>
<line x1="588.00" y1="74" x2="588.00" y2="304" stroke="#f1f3f4" stroke-width="1"/>
<text x="588.00" y="326" font-family="Arial, sans-serif" font-size="11" text-anchor="middle" fill="#6b7280">99.8</text>
<line x1="841.00" y1="74" x2="841.00" y2="304" stroke="#f1f3f4" stroke-width="1"/>
<text x="841.00" y="326" font-family="Arial, sans-serif" font-size="11" text-anchor="middle" fill="#6b7280">149.7</text>
<line x1="1094.00" y1="74" x2="1094.00" y2="304" stroke="#f1f3f4" stroke-width="1"/>
<text x="1094.00" y="326" font-family="Arial, sans-serif" font-size="11" text-anchor="middle" fill="#6b7280">199.5</text>
<text x="24" y="189.00" transform="rotate(-90 24,189.00)" font-family="Arial, sans-serif" font-size="12" text-anchor="middle" fill="#5f6368">code</text>
<polyline fill="none" stroke="#005f73" stroke-width="1.6" stroke-linejoin="round" stroke-linecap="round" points="82.00,195.61 93.75,196.87 105.75,89.86 117.86,196.87 129.79,102.45 141.82,196.87 153.63,121.33 165.61,196.87 177.35,134.55 189.24,196.87 200.93,143.37 212.77,196.87 224.40,150.29 236.18,196.87 247.78,156.58 259.51,196.87 271.08,160.99 282.76,196.87 294.30,165.40 305.95,196.87 317.47,167.91 329.08,196.87 340.58,170.43 352.16,196.87 363.64,171.69 375.19,196.87 386.65,176.10 398.21,196.87 409.62,182.39 421.18,196.87 432.58,185.54 444.10,196.87 455.51,185.54 467.01,196.87 478.41,185.54 489.89,196.87 501.28,188.06 512.78,196.87 524.14,193.09 535.65,196.87 547.01,195.61 558.50,196.87 569.85,194.98 581.33,196.87 592.69,193.72 604.16,196.87 615.52,192.46 626.97,196.87 638.34,191.20 649.78,196.87 661.13,193.09 672.60,196.87 683.92,197.50 695.41,196.87 706.74,199.39 718.20,196.87 729.54,198.13 740.99,196.87 752.33,196.87 763.78,196.87 775.12,194.98 786.56,196.87 797.89,196.87 809.36,196.87 820.67,201.27 832.15,196.87 843.46,203.16 854.93,196.87 866.24,201.27 877.71,196.87 889.03,199.39 900.48,196.87 911.81,198.13 923.25,196.87 934.59,196.24 946.03,196.87 957.37,194.98 968.79,196.87 980.13,196.24 991.58,196.87 1002.89,200.64 1014.37,196.87 1025.67,202.53 1037.13,196.87 1048.45,200.64 1059.90,196.87 1071.22,198.76 1082.66,196.87 1094.00,197.50"/>
<polyline fill="none" stroke="#ae2012" stroke-width="1.6" stroke-linejoin="round" stroke-linecap="round" points="82.00,196.87 93.75,184.91 105.75,196.87 117.86,284.99 129.79,196.87 141.82,288.14 153.63,196.87 165.61,283.73 177.35,196.87 189.24,272.40 200.93,196.87 212.77,262.96 224.40,196.87 236.18,253.52 247.78,196.87 259.51,245.96 271.08,196.87 282.76,238.41 294.30,196.87 305.95,231.49 317.47,196.87 329.08,225.82 340.58,196.87 352.16,220.16 363.64,196.87 375.19,214.49 386.65,196.87 398.21,215.75 409.62,196.87 421.18,215.75 432.58,196.87 444.10,211.35 455.51,196.87 467.01,207.57 478.41,196.87 489.89,204.42 501.28,196.87 512.78,207.57 524.14,196.87 535.65,210.72 547.01,196.87 558.50,208.20 569.85,196.87 581.33,205.05 592.69,196.87 604.16,202.53 615.52,196.87 626.97,200.02 638.34,196.87 649.78,197.50 661.13,196.87 672.60,201.27 683.92,196.87 695.41,205.68 706.74,196.87 718.20,203.16 729.54,196.87 740.99,201.27 752.33,196.87 763.78,199.39 775.12,196.87 786.56,197.50 797.89,196.87 809.36,201.90 820.67,196.87 832.15,205.68 843.46,196.87 854.93,203.79 866.24,196.87 877.71,201.90 889.03,196.87 900.48,200.02 911.81,196.87 923.25,198.76 934.59,196.87 946.03,196.87 957.37,196.87 968.79,194.98 980.13,196.87 991.58,199.39 1002.89,196.87 1014.37,203.79 1025.67,196.87 1037.13,201.90 1048.45,196.87 1059.90,200.02 1071.22,196.87 1082.66,198.76 1094.00,196.87"/>
<line x1="90" y1="92" x2="114" y2="92" stroke="#005f73" stroke-width="3"/>
<text x="121" y="96" font-family="Arial, sans-serif" font-size="12" fill="#374151">CP1</text>
<line x1="206" y1="92" x2="230" y2="92" stroke="#ae2012" stroke-width="3"/>
<text x="237" y="96" font-family="Arial, sans-serif" font-size="12" fill="#374151">CP2</text>
<text x="82" y="345" font-family="Arial, sans-serif" font-size="15" font-weight="700" fill="#202124">Hold-time CP difference</text>
<rect x="82" y="360" width="1012" height="230" fill="#ffffff" stroke="#dadce0" stroke-width="1"/>
<line x1="82" y1="590.00" x2="1094" y2="590.00" stroke="#eceff1" stroke-width="1"/>
<text x="72" y="594.00" font-family="Arial, sans-serif" font-size="11" text-anchor="end" fill="#6b7280">-185</text>
<line x1="82" y1="532.50" x2="1094" y2="532.50" stroke="#eceff1" stroke-width="1"/>
<text x="72" y="536.50" font-family="Arial, sans-serif" font-size="11" text-anchor="end" fill="#6b7280">-130</text>
<line x1="82" y1="475.00" x2="1094" y2="475.00" stroke="#eceff1" stroke-width="1"/>
<text x="72" y="479.00" font-family="Arial, sans-serif" font-size="11" text-anchor="end" fill="#6b7280">-75.5</text>
<line x1="82" y1="417.50" x2="1094" y2="417.50" stroke="#eceff1" stroke-width="1"/>
<text x="72" y="421.50" font-family="Arial, sans-serif" font-size="11" text-anchor="end" fill="#6b7280">-20.7</text>
<line x1="82" y1="360.00" x2="1094" y2="360.00" stroke="#eceff1" stroke-width="1"/>
<text x="72" y="364.00" font-family="Arial, sans-serif" font-size="11" text-anchor="end" fill="#6b7280">34.1</text>
<line x1="82.00" y1="360" x2="82.00" y2="590" stroke="#f1f3f4" stroke-width="1"/>
<text x="82.00" y="612" font-family="Arial, sans-serif" font-size="11" text-anchor="middle" fill="#6b7280">0.1</text>
<line x1="335.00" y1="360" x2="335.00" y2="590" stroke="#f1f3f4" stroke-width="1"/>
<text x="335.00" y="612" font-family="Arial, sans-serif" font-size="11" text-anchor="middle" fill="#6b7280">50.0</text>
<line x1="588.00" y1="360" x2="588.00" y2="590" stroke="#f1f3f4" stroke-width="1"/>
<text x="588.00" y="612" font-family="Arial, sans-serif" font-size="11" text-anchor="middle" fill="#6b7280">99.8</text>
<line x1="841.00" y1="360" x2="841.00" y2="590" stroke="#f1f3f4" stroke-width="1"/>
<text x="841.00" y="612" font-family="Arial, sans-serif" font-size="11" text-anchor="middle" fill="#6b7280">149.7</text>
<line x1="1094.00" y1="360" x2="1094.00" y2="590" stroke="#f1f3f4" stroke-width="1"/>
<text x="1094.00" y="612" font-family="Arial, sans-serif" font-size="11" text-anchor="middle" fill="#6b7280">199.5</text>
<text x="24" y="475.00" transform="rotate(-90 24,475.00)" font-family="Arial, sans-serif" font-size="12" text-anchor="middle" fill="#5f6368">code</text>
<polyline fill="none" stroke="#0a9396" stroke-width="1.6" stroke-linejoin="round" stroke-linecap="round" points="82.00,397.89 93.75,375.86 105.75,574.14 117.86,542.67 129.79,553.16 141.82,547.91 153.63,521.68 165.61,540.57 177.35,499.65 189.24,521.68 200.93,484.97 212.77,505.95 224.40,473.43 236.18,490.21 247.78,462.94 259.51,477.62 271.08,455.59 282.76,465.03 294.30,448.25 305.95,453.49 317.47,444.05 329.08,444.05 340.58,439.86 352.16,434.61 363.64,437.76 375.19,425.17 386.65,430.41 398.21,427.27 409.62,419.92 421.18,427.27 432.58,414.68 444.10,419.92 455.51,414.68 467.01,413.63 478.41,414.68 489.89,408.38 501.28,410.48 512.78,413.63 524.14,402.09 535.65,418.87 547.01,397.89 558.50,414.68 569.85,398.94 581.33,409.43 592.69,401.04 604.16,405.24 615.52,403.14 626.97,401.04 638.34,405.24 649.78,396.84 661.13,402.09 672.60,403.14 683.92,394.75 695.41,410.48 706.74,391.60 718.20,406.29 729.54,393.70 740.99,403.14 752.33,395.79 763.78,399.99 775.12,398.94 786.56,396.84 797.89,395.79 809.36,404.19 820.67,388.45 832.15,410.48 843.46,385.30 854.93,407.33 866.24,388.45 877.71,404.19 889.03,391.60 900.48,401.04 911.81,393.70 923.25,398.94 934.59,396.84 946.03,395.79 957.37,398.94 968.79,392.65 980.13,396.84 991.58,399.99 1002.89,389.50 1014.37,407.33 1025.67,386.35 1037.13,404.19 1048.45,389.50 1059.90,401.04 1071.22,392.65 1082.66,398.94 1094.00,394.75"/>
<line x1="90" y1="378" x2="114" y2="378" stroke="#0a9396" stroke-width="3"/>
<text x="121" y="382" font-family="Arial, sans-serif" font-size="12" fill="#374151">CP2-CP1</text>
<text x="82" y="631" font-family="Arial, sans-serif" font-size="15" font-weight="700" fill="#202124">oref and held ramp voltages</text>
<rect x="82" y="646" width="1012" height="230" fill="#ffffff" stroke="#dadce0" stroke-width="1"/>
<line x1="82" y1="876.00" x2="1094" y2="876.00" stroke="#eceff1" stroke-width="1"/>
<text x="72" y="880.00" font-family="Arial, sans-serif" font-size="11" text-anchor="end" fill="#6b7280">0.189</text>
<line x1="82" y1="818.50" x2="1094" y2="818.50" stroke="#eceff1" stroke-width="1"/>
<text x="72" y="822.50" font-family="Arial, sans-serif" font-size="11" text-anchor="end" fill="#6b7280">0.329</text>
<line x1="82" y1="761.00" x2="1094" y2="761.00" stroke="#eceff1" stroke-width="1"/>
<text x="72" y="765.00" font-family="Arial, sans-serif" font-size="11" text-anchor="end" fill="#6b7280">0.469</text>
<line x1="82" y1="703.50" x2="1094" y2="703.50" stroke="#eceff1" stroke-width="1"/>
<text x="72" y="707.50" font-family="Arial, sans-serif" font-size="11" text-anchor="end" fill="#6b7280">0.609</text>
<line x1="82" y1="646.00" x2="1094" y2="646.00" stroke="#eceff1" stroke-width="1"/>
<text x="72" y="650.00" font-family="Arial, sans-serif" font-size="11" text-anchor="end" fill="#6b7280">0.75</text>
<line x1="82.00" y1="646" x2="82.00" y2="876" stroke="#f1f3f4" stroke-width="1"/>
<text x="82.00" y="898" font-family="Arial, sans-serif" font-size="11" text-anchor="middle" fill="#6b7280">0.1</text>
<line x1="335.00" y1="646" x2="335.00" y2="876" stroke="#f1f3f4" stroke-width="1"/>
<text x="335.00" y="898" font-family="Arial, sans-serif" font-size="11" text-anchor="middle" fill="#6b7280">50.0</text>
<line x1="588.00" y1="646" x2="588.00" y2="876" stroke="#f1f3f4" stroke-width="1"/>
<text x="588.00" y="898" font-family="Arial, sans-serif" font-size="11" text-anchor="middle" fill="#6b7280">99.8</text>
<line x1="841.00" y1="646" x2="841.00" y2="876" stroke="#f1f3f4" stroke-width="1"/>
<text x="841.00" y="898" font-family="Arial, sans-serif" font-size="11" text-anchor="middle" fill="#6b7280">149.7</text>
<line x1="1094.00" y1="646" x2="1094.00" y2="876" stroke="#f1f3f4" stroke-width="1"/>
<text x="1094.00" y="898" font-family="Arial, sans-serif" font-size="11" text-anchor="middle" fill="#6b7280">199.5</text>
<text x="24" y="761.00" transform="rotate(-90 24,761.00)" font-family="Arial, sans-serif" font-size="12" text-anchor="middle" fill="#5f6368">V</text>
<polyline fill="none" stroke="#005f73" stroke-width="1.6" stroke-linejoin="round" stroke-linecap="round" points="82.00,689.89 93.75,837.42 105.75,667.88 117.86,827.81 129.79,676.81 141.82,829.01 153.63,677.14 165.61,830.91 177.35,676.85 189.24,831.99 200.93,675.77 212.77,833.04 224.40,674.80 236.18,833.62 247.78,673.65 259.51,834.30 271.08,672.91 282.76,834.44 294.30,672.29 305.95,835.03 317.47,671.28 329.08,835.16 340.58,670.60 352.16,835.56 363.64,669.87 375.19,835.65 386.65,669.41 398.21,836.09 409.62,670.04 421.18,836.85 432.58,670.15 444.10,836.92 455.51,669.49 467.01,837.06 478.41,669.17 489.89,836.64 501.28,668.75 512.78,837.00 524.14,669.23 535.65,837.74 547.01,669.49 558.50,837.92 569.85,669.23 581.33,837.70 592.69,668.84 604.16,837.88 615.52,668.54 626.97,837.41 638.34,667.96 649.78,837.15 661.13,667.87 672.60,837.67 683.92,668.64 695.41,838.23 706.74,668.98 718.20,838.41 729.54,668.58 740.99,838.40 752.33,668.68 763.78,837.80 775.12,668.45 786.56,837.91 797.89,668.12 809.36,838.11 820.67,668.43 832.15,838.47 843.46,669.05 854.93,838.78 866.24,669.13 877.71,838.63 889.03,668.52 900.48,838.16 911.81,668.24 923.25,838.30 934.59,668.29 946.03,838.10 957.37,667.70 968.79,837.57 980.13,667.66 991.58,837.85 1002.89,668.39 1014.37,838.71 1025.67,669.07 1037.13,838.85 1048.45,668.90 1059.90,838.45 1071.22,668.58 1082.66,838.09 1094.00,668.22"/>
<polyline fill="none" stroke="#ae2012" stroke-width="1.6" stroke-linejoin="round" stroke-linecap="round" points="82.00,860.14 93.75,669.43 105.75,839.38 117.86,674.96 129.79,825.01 141.82,672.02 153.63,823.99 165.61,669.74 177.35,824.22 189.24,668.59 200.93,825.31 212.77,667.55 224.40,826.29 236.18,667.00 247.78,827.45 259.51,666.36 271.08,828.18 282.76,666.24 294.30,828.79 305.95,665.69 317.47,829.80 329.08,665.60 340.58,830.46 352.16,665.24 363.64,831.18 375.19,665.18 386.65,831.62 398.21,664.76 409.62,830.99 421.18,663.99 432.58,830.92 444.10,663.89 455.51,831.59 467.01,663.78 478.41,831.88 489.89,664.22 501.28,832.29 512.78,663.88 524.14,831.82 535.65,663.12 547.01,831.62 558.50,662.91 569.85,831.88 581.33,663.13 592.69,832.27 604.16,662.99 615.52,832.54 626.97,663.47 638.34,833.09 649.78,663.75 661.13,833.16 672.60,663.24 683.92,832.41 695.41,662.52 706.74,832.15 718.20,662.29 729.54,832.56 740.99,662.30 752.33,832.43 763.78,663.05 775.12,832.62 786.56,662.98 797.89,832.93 809.36,662.80 820.67,832.64 832.15,662.27 843.46,832.11 854.93,661.91 866.24,832.04 877.71,662.06 889.03,832.62 900.48,662.54 911.81,832.89 923.25,662.42 934.59,832.81 946.03,662.78 957.37,833.59 968.79,663.31 980.13,833.64 991.58,663.05 1002.89,832.70 1014.37,662.05 1025.67,832.07 1037.13,661.86 1048.45,832.24 1059.90,662.26 1071.22,832.55 1082.66,662.62 1094.00,832.89"/>
<polyline fill="none" stroke="#0a9396" stroke-width="1.6" stroke-linejoin="round" stroke-linecap="round" points="82.00,748.32 93.75,748.53 105.75,760.02 117.86,736.90 129.79,759.62 141.82,738.65 153.63,758.86 165.61,741.14 177.35,757.72 189.24,742.52 200.93,756.28 212.77,743.74 224.40,755.00 236.18,744.75 247.78,753.84 259.51,745.59 271.08,752.80 282.76,746.27 294.30,751.85 305.95,746.80 317.47,750.96 329.08,747.20 340.58,750.13 352.16,747.52 363.64,749.38 375.19,747.75 386.65,749.15 398.21,748.81 409.62,749.11 421.18,749.76 432.58,748.95 444.10,749.74 455.51,748.40 467.01,749.73 478.41,747.90 489.89,749.70 501.28,747.90 512.78,750.55 524.14,748.39 535.65,751.33 547.01,748.43 558.50,751.18 569.85,748.01 581.33,751.03 592.69,747.62 604.16,750.88 615.52,747.26 626.97,750.72 638.34,746.92 649.78,750.56 661.13,747.06 672.60,751.31 683.92,747.66 695.41,751.98 706.74,747.79 718.20,751.73 729.54,747.48 740.99,751.54 752.33,747.19 763.78,751.33 775.12,746.91 786.56,751.13 797.89,747.09 809.36,751.84 820.67,747.72 832.15,752.49 843.46,747.89 854.93,752.21 866.24,747.61 877.71,751.98 889.03,747.34 900.48,751.75 911.81,747.07 923.25,751.53 934.59,746.81 946.03,751.31 957.37,746.55 968.79,751.10 980.13,746.77 991.58,751.79 1002.89,747.42 1014.37,752.42 1025.67,747.61 1037.13,752.14 1048.45,747.34 1059.90,751.90 1071.22,747.09 1082.66,751.66 1094.00,746.84"/>
<line x1="90" y1="664" x2="114" y2="664" stroke="#005f73" stroke-width="3"/>
<text x="121" y="668" font-family="Arial, sans-serif" font-size="12" fill="#374151">VRC1</text>
<line x1="212" y1="664" x2="236" y2="664" stroke="#ae2012" stroke-width="3"/>
<text x="243" y="668" font-family="Arial, sans-serif" font-size="12" fill="#374151">VRC2</text>
<line x1="334" y1="664" x2="358" y2="664" stroke="#0a9396" stroke-width="3"/>
<text x="365" y="668" font-family="Arial, sans-serif" font-size="12" fill="#374151">oref</text>
<text x="588.00" y="914" font-family="Arial, sans-serif" font-size="12" text-anchor="middle" fill="#5f6368">time (us)</text>
</svg>